<mxfile modified="2024-07-03T04:12:46.483Z" host="app.diagrams.net" agent="Mozilla/5.0 (Windows NT 10.0; Win64; x64) AppleWebKit/537.36 (KHTML, like Gecko) Chrome/126.0.0.0 Safari/537.36" etag="Sk7d3r97JP_bB_QJpAHC" version="24.6.4" type="github" pages="2">
  <diagram id="l8hXMBHkgcEJcSW0mbfh" name="Page-1">
    <mxGraphModel dx="1434" dy="820" grid="1" gridSize="10" guides="1" tooltips="1" connect="1" arrows="1" fold="1" page="1" pageScale="1" pageWidth="1169" pageHeight="827" math="0" shadow="0">
      <root>
        <mxCell id="0" />
        <mxCell id="1" parent="0" />
        <mxCell id="lnFkBy6FvHA1qxJG19Pg-2" value="Temperature&lt;div&gt;Sensor 1&lt;/div&gt;" style="outlineConnect=0;dashed=0;verticalLabelPosition=bottom;verticalAlign=top;align=center;html=1;shape=mxgraph.aws3.thermostat;fillColor=#5294CF;gradientColor=none;" vertex="1" parent="1">
          <mxGeometry x="240" y="135.2" width="49.5" height="49.5" as="geometry" />
        </mxCell>
        <mxCell id="lnFkBy6FvHA1qxJG19Pg-6" value="Temperature&lt;div&gt;Sensor 2&lt;/div&gt;" style="outlineConnect=0;dashed=0;verticalLabelPosition=bottom;verticalAlign=top;align=center;html=1;shape=mxgraph.aws3.thermostat;fillColor=#5294CF;gradientColor=none;" vertex="1" parent="1">
          <mxGeometry x="195" y="267.25" width="49.5" height="49.5" as="geometry" />
        </mxCell>
        <mxCell id="lnFkBy6FvHA1qxJG19Pg-7" value="Temperature&lt;div&gt;Sensor 3&lt;/div&gt;" style="outlineConnect=0;dashed=0;verticalLabelPosition=bottom;verticalAlign=top;align=center;html=1;shape=mxgraph.aws3.thermostat;fillColor=#5294CF;gradientColor=none;" vertex="1" parent="1">
          <mxGeometry x="230" y="414" width="49.5" height="49.5" as="geometry" />
        </mxCell>
        <mxCell id="lnFkBy6FvHA1qxJG19Pg-9" value="" style="image;aspect=fixed;perimeter=ellipsePerimeter;html=1;align=center;shadow=0;dashed=0;spacingTop=3;image=img/lib/active_directory/internet_cloud.svg;" vertex="1" parent="1">
          <mxGeometry x="370" y="250" width="126.98" height="80" as="geometry" />
        </mxCell>
        <mxCell id="lnFkBy6FvHA1qxJG19Pg-10" value="" style="group" vertex="1" connectable="0" parent="1">
          <mxGeometry x="609" y="232" width="113" height="120" as="geometry" />
        </mxCell>
        <mxCell id="lnFkBy6FvHA1qxJG19Pg-1" value="" style="outlineConnect=0;dashed=0;verticalLabelPosition=bottom;verticalAlign=top;align=center;html=1;shape=mxgraph.aws3.mqtt_protocol;fillColor=#5294CF;gradientColor=none;" vertex="1" parent="lnFkBy6FvHA1qxJG19Pg-10">
          <mxGeometry width="113" height="120" as="geometry" />
        </mxCell>
        <mxCell id="lnFkBy6FvHA1qxJG19Pg-5" value="" style="shape=image;verticalLabelPosition=bottom;labelBackgroundColor=default;verticalAlign=top;aspect=fixed;imageAspect=0;image=data:image/png,iVBORw0KGgoAAAANSUhEUgAAAFwAAABhCAYAAABbC8YrAAAAAXNSR0IArs4c6QAAAARnQU1BAACxjwv8YQUAAAAJcEhZcwAAEnQAABJ0Ad5mH3gAADOwSURBVHhe7X0HmFzVke7feXLSZM1IozCSRjknhCRQAJlowJi0NqxhAbNrvF4b1mbfA/ywDWvMLtj4YWOcMCYHIaICkkA5x1EaaaTJOYee6XDf/587LYQMnlGyYb9XrZ6+fe8JdepU/VV17rktRzgcttBDlmXB6XT2fPv/dC7IQSGL4HA4ek6dGllWmK04+ckPc4JvHoQRgpMvh76cXtN/Y7IQ5iDEvot8SyY23/oj+USOz4yMOp+usA1J2OEwnA4yS+GHEUQg1M2ZtCfhi0LiVQritBxUFb2CRsiWFeq5fubCFp0xfgiRJOxwKEBhO7BpZym27ikjs9KKEM99MaROO6XihDgCCweO1GHF2kIqjsYg/s/eGM5Y4E6qgQzRcnqxfV8lHn78Vfz4v17E6i2HYFH7qec9JT/fZCyU0thLYf/4sRfx6M/fxLKPDiCkk6SzZa0Gw3uO+0bGxFxGjJp9Ve8KBLFyzUH8/uUVKKlpYKMO9EuMxi3XLMCVF4+iI/YibGCLGmNenwMi31YESgmFDkLI2s3leOy3r6OqptXAdUp8DL5z+2WYNXUw3A43x2urjxSsB4v1t+9EMzplDReWRabIYDYb+WjTQfzmubdRXtVkNNpL5mqb2vHMyyuxZNletPtpqlaAb1WS8f79yQxByhMOIBB0YM32Uvz3M0tQVdvMMTgo4BDqmzvwh5c+QEl5M2Xr4FhDrGfzfzoab1EApwEpnNXjuObAoaM1ePpPK1DV3GVm3GlFISgn6naioa0Nv/jtMry4ZCOCHBSBnnVOo8tzQNJShyNIyAjjg/X78MNHX0RFXSPctN6gtN9y0zKJ5yUN+N3zK1FeTa13cSokNFm2Gf+pkeWgXHqO+0wOpzTcnuXmVj8e/+07NMEWypJmydZ8PifmzByBOA8ZZrnO7k5qyXI89sy71Hq/puvzQZRXVUMQv39tAx771avo9MsCOS6+z58xDMmJcSZMlI/6aHMhHnt6CY6W1PI6Byn1PlU4ITlZ95QFHrYULlHojE5WrStEYVEVzyrmpsmJ2SlD8b07rsCXF06Bz0vco1YEWX7Jsu147tU1aGzvoFEydjGTpgGaZs85GQjgW2FeiBZYXNqIZ2iZL7yxHq0dhDxqrdfnxZxZo/Fvt16Cy+aPg9vlgiPcxTourNtZhPc+2E3tF88KFE6dJAfXA6Se730iOUm5vuJjNXjsN0vQ1uan2IjcLjeG5qbg3m9eg9QkH8aPHYKMtCxs23mQEBNkTQf2HTiKstI6ZGZkIyU5ztZ2IdRpaMupk+CMvLOrLduP4aHHX8D23SXkjVpM6PDSIq+9/Hz8yy2LkBDjwfD8QThwuJR+qdkoh4PjKymtQv6gTORm9jMKfqp8OxA4DUgJM8pwhrFh5xFU1rZxDNRXYkmU18KFM0YjOy2GQwvD4wpi6rg8pCTFIdjlN4K1XNHYyUEeLq5AF5MjWUUEns49CbOZlrG7XXsOo6S2HZY7mlBIN0iN90RFY87UkYhyBcirE7EeBy6aM5YQ6SPfFqLdPjTROtduKkJA5hKSEp0aOYKe0xC404n2zjBWrt/FIdDkyJxCqomjBmDh3EnGZF0OOp4Qk6Bte1Fb30hTjRYWsXQ3Llo4GZMn5SGaEySv/bfRblmmm28X3NTmC+dOxNgRubCCnca5O8lvR3snPtqwnWy6NDfGH02fMAxjRvRXbXR0tsPp8mDthkIqWosCd7vhUyDLdRpOM0zPvmFjEQ4eraZgLeKhhRGDsnD79ZcgKz0WISdjdDK8r6gSz7y0Gv6gCwEJmw5j0dzx+Mcb5qB/aiJcYY+kYPD8b0GWk75HTosWOjgnGd+//RLMor9xUeAiBzX9laVb8cGmAwJIhDi2xLgoXHf5DPg8UXY5olJtYyveW7GNynLKoiMxius5+kyy1xKojcJuvtvagnh37VYgQDhgrOr2unDx7HEYNCCRxQg3NNtAsAuvvbUNlXVNcBnTC2MENeWGK2cgxuem41E8yyYY2Sz/sBA7Cks5cSwn86ZTjlCkz9Mj1QsauDhWWos339+LVr+fLMoewxiYm4pvf2MhZk0YrNGZie/g2F5ZvBm1ba2cGIqdcDcqvz+m0HqtkJI91vS4sHbLQdQ0tPB6sIdH8dq74siaexW4IOOEFVwcKanD7t2lBsetsBtD+mdhxvR8ltP88cWOt+6qxIdb9vIbBetyICk2CXfctBC5/dOoSYCHJixLeW/1bjzy89fxwM9exo69FdRCTa4s5JOCPh2hS9AK4Q5T2D98/A08+suX8fxr64w9KdbWkDJT++GfbiRfmam0TF5g/3v3FeOjtUzpyZ94iYv14aIFk5DVL8a0ZzGBK2WEs2XnYXPdRGxG2H2DmD5ouD0zUhgdL/1wOzq7eECOncSxiwkTGalxcNGLC5Mbm/146c116OiysVwRzVVfmoyxw7N4RLznoFgb76/ah1888z66yHRDQwf+42d/xkvvbUew2w47I9h+4nFfyUwY+1694QD+98MvYd/RMlgeD15ashW/+/Mq+hcJk+0yZB2QHYevX7sAUUQ4M0aGgm+8vZGJToNpR9Y5ZdxgfOnCsYiidbqdbnQHQ3hv5U7mGEqcTs0P9R2I2GZTYxPjbjLvUtzqQWycB5PH96fGeo23pxvGoeJa7Nx/1KTGjrAX/fsnYsH5Wk+hdhBuwhTwzgNleOH1NWjr7qJF0Cw5Ca1tHfjT8x9i+cZCdHd393R66hSxju27juCXzy1FcU0D3DQcN7XQH+rAm8s2Y//ROg7HYpBGK+XEnEcnPiIvh9kwFYTRVWllE7ZsKzaC1FJGHCOVmVOGICsrmdCiENiP4pJG1NTWG+XRpPSV+ihwzWA3ispacLS8wTieALsaOzQbOVlpPJK2BxAMuLBk+TajpWFpt9OPL18wDblZSWaAMklN2COPv4gjZYxeOBgt34ZCtAYaekNrC/7zyXfw/Jub4Q9oMozSUYsENZ9NMmnNtxXuVmt4/6N9uO9nL6CyvA1eXlfCwUibShFCQ1MXnvrDUrQyxGMubBxpfKwX/3DN+YiNFkyGGDo68daqXWjp6mB2yKiFwx+Wn4PpoweZuN3FwKCltQMbd5ZwIiUbvW3R90a9C5xtSaC0IuwivnV3dXPmnYQQC9Mnj2Q2plU0dehCSUU9DhaVGywUZfRLxnkzC3hd0EIt9nfhz6+sYljVKXSnC7KQEh+PC6aPMVGAxbArREE/+8qH+N0LK9Dc0U6BcDJ7Y5P9u2gpB4/V4tFn3sUvn3kbna103i7G+m4XHeMwpKcyBnbGIEzrLDxwDEtX7aUKKeaW43OggGHi8MED2RNDWEc3jpVVcCxVBiZNFxT85IkFnBTyyeHJze4/eAx+KldPCfO3N+pd4MIovgLkbQ+hwCknyldCnA/5A1N5RaolM3bhcEktqutbzYRImyaNYbaZ4uthxYEDxVXYtruM8O+xzxFiFswag2/fsQjXXjYVMYxTLSsKHcEAXnlrB/70ykZUsD1N+F9znBr80bJW+oQPGI3sQFMnrUMRFK9dMGMc/vWOS/DVy8/jpFBS9DvdzBGW0mFXMHHTwqzGkBjjxaTxeWrM8NXN8W7fUWrGahwwSw3ITkJyoteMlaqP4rIGWgyVQkz0kXoVeGSY7R1dOFZOzDIDt5CR0Q8Dc9JNgqDvnRzk5m370U3mLMbYPp8XUybm0wLkjQgLNNOVH+6glstCAjRFII0WcM2lU5GWGINvXDsft3z1Qmq5TJ0hWsiPP7+xHv/5xGs4WFxt2vgsamrqxk9+8TK2FR6hHLrYvyDGgUVzJuI7dyxghBFHPzIOI4cxiSEcOinQQyUVWLVqDzo6tOhGe+P586ZTg+mXLMKMIHH/wQpCT5sMyMB0YrwPI4blGRiSFCqqG1Hf1EIFklJGJPXXqU8arnizpqkNfgrdLe0lAwOYvMSSgTC/iJ8mfwj76TDdFKYwM4WMD81J4WDYBTG2pTOAwkMNJlnyh7qgFZipo7Mo9DheJ0R5gvBFJxntUtLhDPswMCsGC+eMQnZqNM8pyOSoLT/rGrbUrEJtxMa4sGgW03LF+O54g9sib1wMvBScHHUSj2dMzDWWp2EHqOXLPiROt7M1hrdh9pme4EVuaoLJE5x0Ckera1HfECBL3YQihrNuN/Jz+yEoqRHL/V1BVDARUlInS+kL9S5wtiORNnEmuxg9SMPl5JIS4wy+ikJMYKrpsdva2ykFlmadtNRkJCcnUiiasDBKyqvQ1Gwv5Hs9PkQxYRpVkM9BUKP4am0P4oNVjJMVENNko9xhfPWaC3DRvCmIiWVmyjac7CcMH7yyIsbDSryEyV7i9LwLp+DCmWNg0cd0CQIowHXrtqOuqZN96rsDo0cOR0y0UnzxbVGYjSg6UmbGqGVYr8eLnJwMFpWPcjLJa2f0xPrKntmEx+PmuONZnFPIc5JDYyPTfNbXGPpCvQtcRGYqKxtNZigMdLOzvFzCiXriwAIBiw6mFO3txE5ek/rlZPVDPFNj41D5b9/BcjS1tJEtZnqBIJONJEweO9QwqpeWeg8V19ACiPnU2huvvoCQUMB01M9zYWodh1lXCmx6DuEVjwNbnkWwbKdxvBpuXKwLt10/D9ddNg2eqCjDc129H28u3dwTjlrI698PI/Op5XyJxzY68Y1bdd+SbZDHaNYrGJZjxhcKBYjjIVTWNFOZOVIjqTCyM1IRE+U1S7yiysqGHkhhA32gXgVukhW+mhhOsV8yFybGOpCVkUSeZZ6Mb8nYoSOlTAg0EBZimj5AWaWJRRSfUMMZBpqBsb0wy2WnxyMtJdb0IU+/bfcx4rbkFEQWr82bzQiIUOCi1mlozpLNCC2+F+G37kPwg58isPgBYPG/w71vGa+rFxf6JXlw81fmYBihTJalUHHz3mJqKg2ex/ExTowaNsAogdaewkxiSqraEAhyhsmbiycz0mI5wUrQqEhUsLJKxuz8Lr8g7pMSopkkRRbtHKipayUc9RVQ+qjh5N2EdJpVk8DwXHJSLJm2qwcYM5aXN5lPkRjJziJ+86W63V1hlFc1GvzUfOgmc15OGjw0WzXW3tnNUK2ENYnfzAKnTi5ADi1AatWlCa8tROD5OxE4spbJEsM91gmE3AiV7oL/5R/AuW8F+6HQGKIqerpk/gQz8RJaJR1bSVmNZpKQ4MKQvPTjfLuYVTa1dKKhWZGGzWtyfDQzUKkZFYPKVV1LvvlpJoF1EhJiCIN2bB4mry2sr+k2QukD9UngUsyOLr+GbhqWR7ZX2exZFpa1EYOlNSKl+YnUBJFuyQWY5jcSTlw98CIMl2nKEOVTlUS0dWh9nANzeRkPZ/KYLyetiYP171mBUHMVHaeHTvlj8w0yAgq31aJzz1I6Njo31hF/A/qnIjraa7hro0CqGxqMVsNBvuKj4JPf0KBoiZ2dnWbC1aYcfFxMNKJjCIWaMPbVyWsfS5M472W6ZBTFhteAkjyTZfcMvhfqVeDqSnFogIG4jo3xUjNcJvpQRxw4TbKri5DD6+pWfXu8GpSKsAbfkeu20w0iNjbGFJbpd3T4e6yDIuNEaqHI1OUZV1czPBU7eElmLQuxl3XluAKMkJgqwVm6GQ5irlkmYKW42Fh4o8gfTV3fO9sZVJvWgBgKU8eaAMGC+Aow6LYdqe7J+uBmNKIFO133i2/7EvtkgkVl0nWdUhvdgW6jcD1FeqVeBR4hI0j7kMTmIyfsnk3n4sy+qcCGOSH6VCEV0aRpm4EqOGmy0nzTjOaNbMicDRazjRCvCXN1J0kxqKWYTHBmumAZYq+AzazH80gO1bBxAofSdglK5QUJpoQK8e2mhqo/811X+Glw2nzXqUg7avHjNg2pf76Pl2A9FT+p1GdSHwRua4NHq4H8poGEaYphxrHs2pSQcL0M89SzOpaJ+Ts7TGl9F5bGxcSa+4J0N4bhphaGkHKqHHk8NTIqinkhz4dYt6KyideoOartY5yeM9rsADDdGeG6GJ0QcgxOu+EbMJpdMydQ26ynhTA/EywtN8hikhLiejgNEyL8tEhOE0euyfJ5oxiiEppYwsEgIECNDTOK6hkZLZV8aeJJGq/4E3brmnh3ezRC5bR2jd6oDwJXfw7ERdOZ8NhoAQ/8THRksiIlBMJseXJRkCYmZ6KChh2Pk9jJ6/xmO07bmdmq4WD46OGEMN1XBsc2Dh+rM2U4T+SQQiuYB2QM4XViOhMrF/HaC939p4Cj4+EcdyXh2ce2WIfCKSqpIX9d1GIHkyIv+ikfYFsSanNLNx2uIIAWx/ZiotQ3Q1GjLMwHOjrRrckia0YZ6ITtKxqOgxDExI4Q2qNKhCCXWU86awJXw3IeMWRcWqGuZepGQzkgdeSjdmfSCSqsMpwagbYaoYl8XjrJzASdtq+zztHSakY9KstwLc6LUUNy2Y/CrRA+2ryPWt7OZIc6JUFkjob7mp8iJmcUOs1CmBOd1CpnXBLcV/0EyJ9nMkW17w+48f7KbSyjzsLIY78DcrTmw/if+nCY2bA2Kim7dRLz42OUzNBnqDzb1nq+4m+j1JyQ9FStdLK8PSy00HoC0ivNoFGWaBvqeKov1AcNV09hOjlbw9kHNdhCAzNPCVxa62aP/bPSCSu291dYVV3bzNI2G9rf0T8r2WRnZsM/Vbe+sc0MTuW9tJCRQ7PpjCQ0JyOaDmzRIpd6lNAFJwOmwbHwHmagimUsk6HGzbsb3jGXsj0CHaXR3N6NV97agLJqZrSqy65GDMlmdqnFMgcjrW4cPlppJlHjkiAz05PIt5Eu+3EwRGyjIqhbRUxa72F4anq0qaWtjRMiiZPYTkqiFMkkEPa5XqhXgWsi9ScpiQ2zTYlYEUVdfSO/qxN7T0duTn+T+moCJMTqmiYyTkakCHxnZqTAxyQmwnhNXQPj40qWFjkxbvRg9hHD71qiDeG1d1ahQhtDOdlOar20OpA8kOGotmEQxngmlDLUaJt0XgLatPMQnn99BUNUhnmcBK/HgxmTx3OizSAorHYUH63oEY49SYMGMREy34j+xO7qmnoToaiGoDKVArfHaZP8QyfhyibLLF/osl2jd3Iq+xOWKalRinoySZ/UYv+MOERFx2mtCFF0VEfKG0wdxatOYvSwgQlIp3MKaS2EmlFWXce0V2snQblGjCZk5KTGy5KJ42S8I4zVmw8SD6k97HdIXhouvnCyEZTC3EMVtXjkyXeweQcz0DYttXbTcdPK6EucLrboZpwfS4fKvrr8ASz/6BCe/ONyNHd3MXqRQwTmTBuBsSOyTPsykjVb9qO6yW/WzkVZaamYNm6guYsjGXTQ0e8orELYRT9huZBAv5OeTAxnksUglNjfjbKyVnOnSDCrZYy8zBRmrFSHHqXvjZzy/jJj04CEezIJzCjUzPRUxDK2lSZpxiur6pkwkHF7ehlpRGF4fjYb5Dl+r6vvwKGjtSyvth3UlBiMHJFtIhiigYnFN2w4hMqGVmMB4vjKBeOQPyDZ1PdYHuzeV4IHn3gNT77wAQpLGhCgxjkZtbgYIbnpF0ChH6tqwZ+WbMTjz7yFupoWXnMZDc1OTsL1l02BN1ozTJhigrN+3SGOUArkJDS5ceH5Y5FJjFeHbBE1jR04VlpOBKWAyUNeTj/0SyE/AmmWCAQcKDpWoTnmuDhmRlbpaXLI9vW+EKeWAlLrbCZkPMUnyZgK20qg08yR4zPnYFL1kvI6U0YFkpjyTp442Gy00TMynUwmNu0oZoxssyKe518wHrE+hmDsz0Nz14aaN97bjG4lNBaZT4rHvXdfhZzcNBO6aa2mhWn34re34D8e+DNK6pjoR9MXsE3dFO4IJeAnj76BPzwnGOkk3LiNf4lPjMK93/oyhg/qz761Q0Abl/ZhV2EpmSEUsf8B2Sm44qKpJjoiu4Y2bC9CO61Ft/tUrmBoulk7MRETJ62Z2fTeQ+XGgjRpWWlJSE2J4dgUEttt9EbO0FM3AEdWINzdBvenmoVGRwGxzUnjR5pjaXVLWxf2HjhihC8LAM10+NAspKWm00SpR44ubN5+kJiou9/siALtnxWPgQOyad7EaQoGriDeW7YLH6zda5ZfLc5K/oB0PPSdazB5fD5CkiyFIZjRUmlXiFmfN5YTRj0hQ52sU9/MmJ2ONMDJ8VEppo8fip9876uYPCaLsEJrJOztPliGZ59fZdbZjXDJ7qRJw5CW5DXWLfbbiM3rNu6jf2IZthsVzbYmjTQ4L5dpws0jpahr7jDjYykMHZRLgWu51syAJNErOa1tS4Cffx2ujc9/GqCYhg2PiiQG9YPbx+SFGqLFoq17KhDqDnEg2trA0JAOZmR+ButwgpiI1Dc1Yu2mw0ZTO7rDeHvFDhw9Rg2hKJQramAtfj9KShmqcWBaX1d/gwak4Z67LsGNl89CbkYazd+FbrbfTl8VZkQhRxqyotHOJMXP/qUAIwfn4ls3L8D3//UKjC7I4fC9RhMtRkVVlXVo6dBN6RB5l7MEVq3ZjcXLd6OxlfkCB757fzUOl5SbiEvKo1By8MAM4wuk4RZ9zfY9xeiWj4Di9hCGSR4MFFRI+2z6Qq4fLip4AF/7KTCO4ZXHDvJPJBM8SQokH5OEjYSJ+sZOwqITrS3NuGDmOCY11BRqgJydj45s9drdZp1DN5NrqloxfMwA/PZPy/D629vgDwXYqxZumcWxzi3XzcINX56LKMZgymLNpvWgw6z6TRqTh4vmjsPc88bBS0HkMfTMbi1EsGIvHMn56Mi/jLgaxh1fW4Cbrp6FUQwtY4jtLr7knKWborzcLFpXCjZtK4K21MjkOjq7sXHNERQVH8WwMfn49W8Xo6S6iXW06BXADVdfgHEF/Q2UyE0dOVqKF5ZsQQMtTS3H0nnfcfNFSIil6ugegBTGqOZfJ9cP3t33gFJnB8MtNX5yHfFn1j1IWngvrajDnkMVZEI3HnQzOQrjRg00JqdOlUQcPVaNkopGCpWZW2sYG7YWovBgJYdBS2BbMsnkuFj809fn4epF05laM9Eg5Ki+Ric21K+9ZOAxN26nThiEjIxkWIdXo7t0I1zpBUi64EZMm5SPrPQEE5oavWB9O85WWxqMllZlNen0DZk4pPuUHdqMSa11elBFP7J2414cK2/smR4XsTuTinCBSYp0t761M4CX3lqD9duPGWtQxDJlzDBcOn8cQ0cxS7Vknycr66eR00MnpHUI3fs3mHkyCVv1olZwrnHepALG03IrWulwYN2Ow6it05oxLYudxvocuGTBJEQz+3RRWyx0oba+gc6MtVUo6DHbJ75x3fm4Yt4EtqUImFGB4VuCN3rOCeR5SYD9yvGZpxM4HpcviecJa1FJ5m6P2UZh1JnHRstMMcmz50gxBbNKtjdn0hD8yz/OZ6iXakJBh4vQxBCzkjmBoNsjodGBX3j+ZGQkRVOwmrwwdu09TGFXcAx0qKznZSo/c3K+WYNRdCNFka70hehgCQXky8nZllGfTFojlqDNciy1c9iQdEwaNYCdKzYN4tChMqwiTsshKRWXx542IR9TGbEEybxujzksmSk/2cT884fh0ftvxhUXT6NWSlASBuMadu1wkHmeslfgKHie1Cf/ULRKb6hd0Qkm27SSUo3xu8i8nJ6poxFIaBoG67IpfvC7Gtcxo4KZU4fjh/92JfIGZBCPqelqg2Nn1IAAYW0EtftLcxkcKPIgb21dASx5fwuKS5uNfLoZvg7MymRCNbiHN7tvu9PeSTydEsVFR9GMh9G5sCqxSw8grdu4B01t2vUk1OSck9fLF84we8CDFLYcl7RjcGYSvnHjIgzKTaYwKT7yaJt/72QmQG9frK0EPmalpm7PpPRGshxNKPkdMTwP3/zaQgzKyjHWorUV7f3SHX7tlUyM09qKoMhCJWP7vYfLqDQBs+GT08N8Igvpis9Pg05Z4JLzhLF5SI6PIku2wIqY4CxbtRV+JgZiSIMazRBx9rRRvE4kZ0Hdw/zWP12F3FT6Cp0ghGly9K83MkWkRWw37I03ZxzRTLk5ZzaI9I20ZmUAjE1NHTUId99xBUYMYVxPruX4hjEqmTdrFEva+KAUZfnqHWhoDTBv4AmOVQu5588oYDuKX06dTlngmvlBOWm4YNZIprzUAnbd3NmF515ejZVr9pnrmoSYaAduv+li5A9MxsghaXjo+zdjwphcIzctCcgjSOuIOL0TBa2XOYxJMe0jtp85Z5/tA2luWc8ADdtz0XdMH5+Fh+65DrOnDmNIG41/vmURE50osaWBYmthCd5fud3GZ1kkFWU6sXvsiAE6oVZPmU5D4OSGScvF8ycgK1XaRmIM2tph4dUla1BR28pCLENTyEyNxbduvQL/evvlGJ7XjzXtxQNhto25evVRZKYYe4+hZjvpP7y6qWBLpm9ipz1J4EboYlGcuJHVL5Fh5ULcfeslKBjGHIK8Kf1v8wfx8ptrmUswu6WV6sZ+YrQPl140CT7mJFKs06FTFrjYlTMbkpfK+PlCnqC26vEROpMDxWX4zXNLGesqIKQ4qBrjR+SiYEjWccdlhCxnqGP96Tn/1+nj8pYvDg4v8VtYzklTRNMXMo4tQmzI1JTS8jg3KxmzpowgZgsQGbrScl9fspZx+wEjIT1eoh1ni+ZOYkAwBB5O+N9M4PbgmUmyw4tmj8LMicPIoMOEVUqG1mw6gmdf/ogpskFoW6gkhZVnRBIOP1zRtKoovj32rgCb+jJpf0n2fVe7rsJLjUt7Et/5aB+ef2Mrs187EfOyzII543DNJdMZOtoWZRzwadApC9zcDNYnE4IYJgY3XDmTGhKNYFc3nZEXoWAXGnTzgZlmSH6lB6T7FEn8VbKBw+GNRcATS4H3rK2f5jxG+JEimOMe9hSa1jCv6Ar5TdOyoGnjB9KaZzDxiuPY7bKnq0CnLPCIVmjtRB2PLhiAr9+4EJlpTEgIdF+5fDruum2ReQrZ6ZbOKPE4YWCnQfZSEYlthBkrhz3UcJeWIezzpzN08XMiT9JvfjGa/g+Xn0dMX8TM2of+6am489YrMTDXvtEQiblPdyxsnz2cAYWJJbopu7WwHPV19UxsxphdrJHBnC5jJ5IELkMxERC/B5+/C56LfwBHSq6ZdAnrNLDxUynCt7a/rd5wEClJiRhfkEUIYQ9noZMzFrjWReQwleJq34lW0aDNOrrGps09zDMkg5qEKMW+WlAIvfUgXLPvhCsx3Rb2WZjUCIlnW+gUi1m6tX2RFWS0bg/rjOiMpaFlDD1BbnYqUbjhk4R9hvPZQ9RsCsAMXAJOzITl9vLIxnV2or9nTLagFYVpIUIZBnvgAPXLIw7P6UUlJ9MZC1wPWLkNk9S9sJ5u+JjpyADOlD5uQe0y24tNhB7DtgV95u2fTDbfEnDQ3F1S3mHuzJ8FOnN7d1EIGrTCJDoyxbcROhvCFmmdQzd+zRa4cAD+fsOM4LU/xmnZT1z0RmY/N61QTyFrnrTJR0926Ius09xIZzNG2MZgqN0MDGTB2i8ecf6fILZpfs5DbWk3GlvXsZ660yuyMepEOmMM/1uQdEsPRIXNZFJgTRVwJhBWKAinBkYY603kRpAcv58C8coambzwLFszsSsnTsLVTNjlpEhSJZGt8X/Zg/aGFx4pRZzXi+jYWKSlxLNGEOVV7cjLS0FijJ6I6yncQ2eu4X8DEpNaexHvEoIrPp0C0WMBQnH7fG8koWmD0B9eWI0tu49S0Jw6gvOu/ZXYtLsUndq6Ry2tqe/Euh2lqKjSs/R23c+imNgo1De00Zl6caCoDIeOVKDoaDVWfrQdjc26M/SX9IUQeCTeNkRNC7t089c+J+fWFxNVCv/28o145sU1+PULH6Kjswutbd148lfv4P/87CXUt7SyHxc27SjC93/8B3y4odBMUoTsRwc/SbE+J9KTE9A/IxnJ8XGoa2xCbWMXsvPSEdDmm0/hrFeBh4hzwjvzw1t0HubRix7M0x4V8WEecSWW8gLL8zzLaYetXuLZPJqi+joWI/wMCyLYtgZi7oLznNmUJCzs6cPeuaU+NFg7JhHu6pvKql05M9Mn+w9b3Vr1ZR3CjDlnY6rdp4UZU0Zh7sx8zDtvlLld6PK6EHTqKTVtJFX7uhmuiIvtm7RefUhotCEHRyO+BGGmL5XRvVev2QiVkhyLpMQECj4GQ7MzkRzLrPRTTK8PP8FERtj4pj1FKDxcZraPbdx1GCvWbEd1TQv6p6WguS2A7buqsGrDXuw6eBRultFPLOlGnPCwi4nRzgPFWLlmF9ZvO4Ty6iazAJQQH2tHMwwF2tjGuo0HsPzDPSivbWb9GLNj1/zeoYNCaWtCaN8yBLe8BEfRGji72xGOz6DQ9LRCCBXE07VbDqOyuhMpqV74GDbq2aE1Ww/jSEUNBmSmEbc5WcTqEbkp7NfDxOYI4eWgeQoiNSUOXX4H1m3Zh8MlVYiPiUFaaiw1OBGar4amNmzfUYzla/ai8KDu6QIpCfFIT41BtNeHZAo8OzPe3KxOT41HTLTW2D/2AxHq1WlKk/3+MP79R3/Gzn3lyOkfh5Jjjegi/mmH8JfmjKIZkZmdh5md2Z48Oz0KD99/C4b0T0QXp/nlNzfgjy+vQ6N+H4uMmoeXkqPMsuiXLhjJesDTz63C84vXws/JiQq7MGPmCPzo7qvh0jbm9ioEXv4+PPsWo9PyIIoa1u2OQcz4yxG+4mE4vHFYtvYAfviz55GZnIJHf/Q1DMxOQnV1G+6+/zmzqehP/30r1u06hgcfW4ILZ+dhzoR83PeLtxHiNR/HGHBbmDyyABs374AvKhHdXX5cumAkfvDPX8HS9Qfw3FsrUFLUZDYKSZAJsV7cdPl0fOXKmYjzeYkVsjsJV0KWklKs0hXNzAnUO4Ybs9LmxRC6w35qZTweffAm3H3b+WYb2furd5ntvd+/58v4+SM3Y/KYXGpbN9at30/Td+LdD/bgjy+u4kQl4sHvXoGnHrgBd10/Gx7G0b/87Tvmt1Xa20L4aGMhMtKS8Iv7v4bbbr4QV8+fDE+UCx5/I8IrnoC1n9qdPx++m56C+7pfwTVgCvw73oS1/D8N7GiLdki7b7VvxYAPFYKCoULTCro40S6E3X6zQ1cp04Qx+fjJ967HwIwExEcn4D++eQ3u+tpM3HD1HNbtxlVfmoAbr5qLPYdK8evfLMaxAy2YPW0Innjwejz0b1dgSHYK/rh4Hd5ZsYvRjeBLeYfQUrCjjVD6/EvqXeBhRgUMu1RdD0VduXA8po0dhPnnTcGgTD1p7OK5sbho6jhMLMjFtOmMkd0O1DfWmyXatRv3m3j2+iun45Lzx2HyxEH4+nWzcOm8CWb31uYd++Fh+UyafGt7F3bsOILZU4ax3FBCkgMdR3fAKl4DKzEN7ll3MK5rpUOi4BZ+h2FCPHBoNdDRbBIwlTc/UsnBS+gBCsJppMDZYCjoC3nJi3yHC4lJsZgxKgexDN0sdxATR+eiYNAADB2URa3Uc6iZGJyTig3bDqOm2Y9JLPuN6+bjvIn5WDhnPG66dg7c7GfVBiocLVRPYwgeIzdX9Fsxn7bk0KvAIyYhvrXLKD0jhUMh8z5icEKMwfT0tFRjZpwd9EtMJD4zOqYAtHBfWVcDX7QDY4fnUQhsj3ChZGXCuMHweLQ7yw+fN4Rv3TwfY4Zl4vdvbcG//Psf8dqyTUx0uhGqLIK7uQnR2RNMKOh/9X/B8fp91OQEBFLyEWpvRLClyuxJ1x4S9SEN1QQYR0h810+LiKT35pOD0au752EqjTGoWzoKBuQYeU5PcUg8tdX18NC5jh43FNm0QAGH6o4amotojr+mppnYzzq9q66hPhUzBsqRaEO9WwMz6xrakMkBsgVb2CqoqNj+tI8c5hmaMKOAllb9lB7ZlamF+L1FT9srKqBDdMRiaG4Gbr/+YvPMfFvAj1eX6PZWkH3EmjVwq7kIwZhYRKfnmJDLWbQS7o56agEdCRVB/Gn/uZ8Y22V2kEqTFekQlrTJ6SRtk5D1eHfktFl27RmHNNVEK6wf7dPakB5AoGDNo++MijgZ2iOubSBawnXrIQE7Pe2V+iRw9keStlCQPNb2XCejjCCxW9cifYlJEyrqWNjJUCqvfxox2o/NTDY6A079NhmaA2GsXltIhxVAXk5/88MGJdU1SM2Io2+4ABMIWQ0UdklpNXxDxiGQmI7O+mqg8hBw49Nwz/wGAut/B2fTMbiSspgIZdOJMaIJd6OzO4TSqjaGsU5U1LcwgupAbHQU7GcryZj41UfPWCRUE+qagfFfz7FRGAo3NzfVPIu5c2cR9pdUU7AKF51YvW0P2prbzB5Er3yHBt0H6v0+ETvXfgzhmnat2lukaHpkxuWyn2lXUiFBG8k73GZNIsjY2udy4apLz8M+hpPPPL8MO3YfI3Z6sL+oFGXlfhQMy8X82SOZlQXxkyfeQkuHhUljc1Fa0mD2Xifr1zuzs+Geeg3Cbz4ELHkQyJ0EBJrQ0t6JeGnh9NvhjopGbo4HgwZmY19RDf7v797A+k1DUHiojFrZjmlTp5rHXnQ3R2GmFlxloWb9h0f2T23rWGPQTWRe5SC0SWou/c7K9YdQuPcoHv6vxcT6PBNGbt5ZjMx+Kbh80QxquKRNufSBei0lXoTZaUlRyMmIodnK3AQrIaQkuZHNONRLp6dfeRPzUTwekMkkID6Kk+BEwZB03HHjPAzNS8PuA4fx0br9aG8JYvK4TNz+DwsY58abrdDa/N7e2oqly7cZzfryonHIyUxlm4yzx14F75y7YCVnwF38ITV9DxLTMxEeQsfVdMTgbmqCAzddNRuTRudAzwmsYpTU2hrEghmjCVMTCIeEHJp+Vhp5i+MYjNJYyGKsnZPBfMBMgDZpepGbGUOLkbU6Oe443Pn1i3DZoknwMBRcubUQm/cfQ/+8TLM3cnyBfoOFzriPIN774hWv6v9DqKvvMriVmRZvtg8r86ylSXV36gcBohHlk5Y70dER4vlOMu4msz5WN7qEFqbShw9XmZg+Iz2Fg0okvmsBlOEbnai2wReX1qKhrg0ZjH4GMuyS4IWnwmzdNQ82lsKqPEgLCsNLTQ8T212rHoWVPhLh8YzZtV2U/qGqpBaldQ1IYvKUP1g/gqYFLgf7Bmqauhg3h6ksugntZJLVQWgLIic93jxEpd86r65voyLEmEcOjePtqV9b14RjJfUMGDwYMiidyQ2v00dIARUaKkLpjXoV+MmX9V1abx9Lp/mpPxSIWd/gFz0IG6lm6z2JabaYl2OSxZjdsiojR6VsiP+EnGpbUYb2I/KQaTudFMsoBNMadZBi1S/6aPlAW9ECgU44dr0FpObDNXAsU3UPXHQtCmEjnNvNEyjEL89rWUBO1AjK8MxCvGh/57E5ZX83RLjk8HhN95zsBWizSmmuaS1Hjl/8nQWBm95tkZlDycysjfCcurYDfbKgQdkcqAC/qGDkQ3quuyg2iWH7GU6V5Yc8jkI603YEDzlII4CeY9OHykmAHDbLm/ZYxtHZjOCB1XAOmgpiDQuwP0UarCNBm1/QROSHdsUxr6gzfTP9iXnzz7Tfc2TI5pN8sJipou8cH3tlO+JRQpYC8fPjap9JfRD455+Exc7uVvgbqxCVmArLF0+Bn4UbkOeA/kcIXGqp0NsVJLyEuhBiUqSc4fNI/zMETnvXIMzje/wnB/f5FPf/AIFH2FcsLY9inpQweN8HQP070BdW4BG2j0cSXxCyHfcXjE7UkS+avnwhBR7Ragk78v6i0BdS4CIJub293bzte55fDDrrGK7f/t65cyeam/V7KZxRJiCitLQ0DB8+3Dxjbyc0n+z2086JIudPvq72Fy1aZD7fffddDBhg/x7hZ1GkDU2OPk8uG2n7xH7+WnunTWz8rFJ9fb118cUXW4mJicff/fr1swYNGmRdddVVVlFRkRUKhSwO3Lx1HCF9P/EzQpGyJx6rn7Fjx5p2jxw58hd1TqZIvc8q11v9s0VnHVLIuFm+1CL9TTfdhPvuuw933nkn4uPj8cYbb+BXv/qV+em6CEU0Su/I8Ynn9D6x3IkU0cDIZ19JPJ5MakPnI32c3NfZorMu8Ihg4uLicP311+O73/0utBPjiSeeQGpqKpYvX47W1lZT9uRBaSIig45c0+8l+v3+41AQoVMVthRA7Yg+q06EdynMuaJz4jQjAtMA29ra0NjYiK1bt5qBTJkyBTExMabc22+/jWuuuQavvvoq7r33XjNBZWVlRjgbNmwwFiKcXrhwIQhHeOWVV45bR2RCRBKUJuSll14y7emttlWmtrYWDz30EC699FIQ6nDDDTcYHxOZWPmcH//4x7jlllvw3nvvmT7vueeenpbPAbHTs0rC1lmzZlk+n89gOQdgzZw500pKSrKuvfZa6/DhwwYvhd2PP/645XK5rMmTJ1uZmZnWJZdcYhUXF1tLly61Bg8ebNEirHnz5llXXHGF1b9/f4uO13rqqacsCsniJH4Cw9euXWvl5+drFixOnFVVVWVxsq0bb7zR+BH5j5tvvtm0O2nSJGv//v2GDyqFddlll1mEPKugoMDKy8uz7rrrrnOG6Wdd4NQoa/bs2Ra1zoqNjTUD0VsTkJuba1HzrGAwaAYkgTNqOS40hnjmmgSnOsuWLTNCk4A1UTqvdlS2oaHBGjdunDVkyBBryZIlVnp6upkQaqvV0tJi2qe/MBP605/+1LShSf7ggw+shIQE65vf/KY519HRYSZU/GpCpDA6d67onGE4IxM8+eSTBhpk3nKcFAQ4UFCLjUkrZBR8ULNNWBcdHQ0KEpWVlaAmgpaCqKgoE0pyUsCJNBBA7ezpDcYf/OhHPzL1br31VgNNgizxceDAAXi9XhOrCy44MeBkQb+de+zYMXNe5UT6pAUiOTnZ9Hmu6JxguEiDGjZsGGimRnCPPvoopk2bZgb65ptvHndMEnpOTs7xeL2kpMRMRlZWlhGW2tEE6k1YMWVKS0vNdxG1EQw1zfGoUfb/F6S3JqamRr/Q6TdOm1qMK6+8ErfddpvxKZpU+YOIgmiyqfnHJ+Bc0VkXuJgX03pLcJFzEnBkgBHt1nm9I8IWEUONoAkhaGpqMtdFilb27t1rvg8dOtSc03FGRgYefvhhEwHdf//9JhqS5mqilGzpl5AffPBBrFq1CqtXrzZvRUq//vWvkZKScrz9yESdyPO5oHOi4RKqBKxBvv7663j22Wfx7W9/G9u3bwexFgsWLDAaFaETBychzJ8/32j6I488gj179hgIevrpp0H8xejRozFmzBhTNiKgOXPmmPCzvLzcRBi///3vDQ/nn3++mbw1a9aY/gRT0uzXXnvNQN6JEy0e9Fa9yOc5ITZ+VklOU1EJGTYOS05Rn8RVa8SIEdaKFSv+Ikqhhn4i+1Q2qjYoLIvxvHlTUy1ClEXhmTJymiNHjjRRhSIbWo+JSDQkCtdavHixcYrf+973TH2dizjviRMnWrt27TL8UjEshozm+rp1645nvpHPs01nfS1FsLF+/XrU1dUZDVLz0jJprjCWIdpxWJHmKiaW1jIC6WnBJsGCLERxuXBYTnX69Olg+GjqC2IED/qcO3eucZTqk+GhwW9BjM6rf+UAshQ5bbUzY8YM045ITnvTpk2orq42FiE+RedKwz+XNyBOZEkTI6Hql+sjdDrCkGD11uT/PelzK3AJ9dNY07kTsbevdHJb50qDe6Nz4jTPlCLCPlEokePTFVRE4H8vQdsE/D+CgKGtuWeFxwAAAABJRU5ErkJggg==;" vertex="1" parent="lnFkBy6FvHA1qxJG19Pg-10">
          <mxGeometry x="25.25" y="8" width="71.98" height="75.9" as="geometry" />
        </mxCell>
        <mxCell id="lnFkBy6FvHA1qxJG19Pg-11" value="" style="image;aspect=fixed;html=1;points=[];align=center;fontSize=12;image=img/lib/azure2/other/Azure_Monitor_Dashboard.svg;" vertex="1" parent="1">
          <mxGeometry x="636.24" y="60.00000000000003" width="68" height="63.2" as="geometry" />
        </mxCell>
        <mxCell id="lnFkBy6FvHA1qxJG19Pg-12" value="Attacker" style="verticalLabelPosition=bottom;sketch=0;html=1;fillColor=#F06650;strokeColor=#ffffff;verticalAlign=top;align=center;points=[];pointerEvents=1;shape=mxgraph.cisco_safe.compositeIcon;bgIcon=threat3;resIcon=mxgraph.cisco_safe.threat.threat_c3;" vertex="1" parent="1">
          <mxGeometry x="394.62" y="490" width="50" height="40.5" as="geometry" />
        </mxCell>
        <mxCell id="lnFkBy6FvHA1qxJG19Pg-13" value="&lt;b&gt;&lt;font style=&quot;font-size: 16px;&quot;&gt;Internet&lt;/font&gt;&lt;/b&gt;" style="text;strokeColor=none;align=center;fillColor=none;html=1;verticalAlign=middle;whiteSpace=wrap;rounded=0;" vertex="1" parent="1">
          <mxGeometry x="394.62" y="277.9" width="60" height="30" as="geometry" />
        </mxCell>
        <mxCell id="lnFkBy6FvHA1qxJG19Pg-17" value="" style="html=1;outlineConnect=0;fillColor=#CCCCCC;strokeColor=#6881B3;gradientColor=none;gradientDirection=north;strokeWidth=2;shape=mxgraph.networks.comm_link_edge;html=1;rounded=0;exitX=1;exitY=0.5;exitDx=0;exitDy=0;exitPerimeter=0;" edge="1" parent="1" source="lnFkBy6FvHA1qxJG19Pg-2" target="lnFkBy6FvHA1qxJG19Pg-9">
          <mxGeometry width="100" height="100" relative="1" as="geometry">
            <mxPoint x="260" y="200" as="sourcePoint" />
            <mxPoint x="360" y="100" as="targetPoint" />
          </mxGeometry>
        </mxCell>
        <mxCell id="lnFkBy6FvHA1qxJG19Pg-18" value="" style="html=1;outlineConnect=0;fillColor=#CCCCCC;strokeColor=#6881B3;gradientColor=none;gradientDirection=north;strokeWidth=2;shape=mxgraph.networks.comm_link_edge;html=1;rounded=0;exitX=1;exitY=0.5;exitDx=0;exitDy=0;exitPerimeter=0;" edge="1" parent="1" source="lnFkBy6FvHA1qxJG19Pg-6">
          <mxGeometry width="100" height="100" relative="1" as="geometry">
            <mxPoint x="260" y="314.75" as="sourcePoint" />
            <mxPoint x="380" y="309" as="targetPoint" />
          </mxGeometry>
        </mxCell>
        <mxCell id="lnFkBy6FvHA1qxJG19Pg-19" value="" style="html=1;outlineConnect=0;fillColor=#CCCCCC;strokeColor=#6881B3;gradientColor=none;gradientDirection=north;strokeWidth=2;shape=mxgraph.networks.comm_link_edge;html=1;rounded=0;exitX=1;exitY=0.5;exitDx=0;exitDy=0;exitPerimeter=0;" edge="1" parent="1" source="lnFkBy6FvHA1qxJG19Pg-7" target="lnFkBy6FvHA1qxJG19Pg-9">
          <mxGeometry width="100" height="100" relative="1" as="geometry">
            <mxPoint x="269.5" y="414" as="sourcePoint" />
            <mxPoint x="380" y="340" as="targetPoint" />
          </mxGeometry>
        </mxCell>
        <mxCell id="lnFkBy6FvHA1qxJG19Pg-20" value="" style="html=1;outlineConnect=0;fillColor=#CCCCCC;strokeColor=#6881B3;gradientColor=none;gradientDirection=north;strokeWidth=2;shape=mxgraph.networks.comm_link_edge;html=1;rounded=0;exitX=0.508;exitY=0.123;exitDx=0;exitDy=0;exitPerimeter=0;" edge="1" parent="1" source="lnFkBy6FvHA1qxJG19Pg-12" target="lnFkBy6FvHA1qxJG19Pg-9">
          <mxGeometry width="100" height="100" relative="1" as="geometry">
            <mxPoint x="420" y="488.75" as="sourcePoint" />
            <mxPoint x="450" y="340" as="targetPoint" />
            <Array as="points">
              <mxPoint x="435" y="380" />
            </Array>
          </mxGeometry>
        </mxCell>
        <mxCell id="lnFkBy6FvHA1qxJG19Pg-23" value="&lt;font color=&quot;#000000&quot;&gt;&lt;b&gt;Internal Docker Network&lt;/b&gt;&lt;/font&gt;" style="html=1;outlineConnect=0;fillColor=#CCCCCC;strokeColor=#6881B3;gradientColor=none;gradientDirection=north;strokeWidth=2;shape=mxgraph.networks.bus;gradientColor=none;gradientDirection=north;fontColor=#ffffff;perimeter=backbonePerimeter;backboneSize=20;" vertex="1" parent="1">
          <mxGeometry x="568.49" y="170" width="203.5" height="30" as="geometry" />
        </mxCell>
        <mxCell id="lnFkBy6FvHA1qxJG19Pg-25" style="edgeStyle=orthogonalEdgeStyle;rounded=0;orthogonalLoop=1;jettySize=auto;html=1;startArrow=oval;startFill=1;endArrow=oval;endFill=1;strokeWidth=3;" edge="1" parent="1" source="lnFkBy6FvHA1qxJG19Pg-5" target="lnFkBy6FvHA1qxJG19Pg-23">
          <mxGeometry relative="1" as="geometry" />
        </mxCell>
        <mxCell id="lnFkBy6FvHA1qxJG19Pg-24" style="edgeStyle=orthogonalEdgeStyle;rounded=0;orthogonalLoop=1;jettySize=auto;html=1;strokeWidth=3;endArrow=oval;endFill=1;startArrow=oval;startFill=1;" edge="1" parent="1" source="lnFkBy6FvHA1qxJG19Pg-11" target="lnFkBy6FvHA1qxJG19Pg-23">
          <mxGeometry relative="1" as="geometry" />
        </mxCell>
        <mxCell id="lnFkBy6FvHA1qxJG19Pg-31" value="" style="html=1;outlineConnect=0;fillColor=#CCCCCC;strokeColor=#6881B3;gradientColor=none;gradientDirection=north;strokeWidth=2;shape=mxgraph.networks.comm_link_edge;html=1;rounded=0;" edge="1" parent="1" source="lnFkBy6FvHA1qxJG19Pg-9" target="lnFkBy6FvHA1qxJG19Pg-1">
          <mxGeometry width="100" height="100" relative="1" as="geometry">
            <mxPoint x="519" y="312" as="sourcePoint" />
            <mxPoint x="619" y="212" as="targetPoint" />
          </mxGeometry>
        </mxCell>
        <mxCell id="lnFkBy6FvHA1qxJG19Pg-35" value="Dashboard" style="text;strokeColor=none;align=center;fillColor=none;html=1;verticalAlign=middle;whiteSpace=wrap;rounded=0;" vertex="1" parent="1">
          <mxGeometry x="640.24" y="30" width="60" height="30" as="geometry" />
        </mxCell>
      </root>
    </mxGraphModel>
  </diagram>
  <diagram id="tfG6BvOy5Wkt9mKB1Bod" name="Page-2">
    <mxGraphModel dx="1434" dy="820" grid="1" gridSize="10" guides="1" tooltips="1" connect="1" arrows="1" fold="1" page="1" pageScale="1" pageWidth="850" pageHeight="1100" math="0" shadow="0">
      <root>
        <mxCell id="0" />
        <mxCell id="1" parent="0" />
        <mxCell id="ITYNh8joJ4E6JzPptwk2-1" value="" style="group" vertex="1" connectable="0" parent="1">
          <mxGeometry x="340" y="200" width="103" height="90" as="geometry" />
        </mxCell>
        <mxCell id="ITYNh8joJ4E6JzPptwk2-2" value="" style="outlineConnect=0;dashed=0;verticalLabelPosition=bottom;verticalAlign=top;align=center;html=1;shape=mxgraph.aws3.mqtt_protocol;fillColor=#5294CF;gradientColor=none;" vertex="1" parent="ITYNh8joJ4E6JzPptwk2-1">
          <mxGeometry width="103" height="90" as="geometry" />
        </mxCell>
        <mxCell id="ITYNh8joJ4E6JzPptwk2-3" value="" style="shape=image;verticalLabelPosition=bottom;labelBackgroundColor=default;verticalAlign=top;aspect=fixed;imageAspect=0;image=data:image/png,iVBORw0KGgoAAAANSUhEUgAAAFwAAABhCAYAAABbC8YrAAAAAXNSR0IArs4c6QAAAARnQU1BAACxjwv8YQUAAAAJcEhZcwAAEnQAABJ0Ad5mH3gAADOwSURBVHhe7X0HmFzVke7feXLSZM1IozCSRjknhCRQAJlowJi0NqxhAbNrvF4b1mbfA/ywDWvMLtj4YWOcMCYHIaICkkA5x1EaaaTJOYee6XDf/587LYQMnlGyYb9XrZ6+fe8JdepU/VV17rktRzgcttBDlmXB6XT2fPv/dC7IQSGL4HA4ek6dGllWmK04+ckPc4JvHoQRgpMvh76cXtN/Y7IQ5iDEvot8SyY23/oj+USOz4yMOp+usA1J2OEwnA4yS+GHEUQg1M2ZtCfhi0LiVQritBxUFb2CRsiWFeq5fubCFp0xfgiRJOxwKEBhO7BpZym27ikjs9KKEM99MaROO6XihDgCCweO1GHF2kIqjsYg/s/eGM5Y4E6qgQzRcnqxfV8lHn78Vfz4v17E6i2HYFH7qec9JT/fZCyU0thLYf/4sRfx6M/fxLKPDiCkk6SzZa0Gw3uO+0bGxFxGjJp9Ve8KBLFyzUH8/uUVKKlpYKMO9EuMxi3XLMCVF4+iI/YibGCLGmNenwMi31YESgmFDkLI2s3leOy3r6OqptXAdUp8DL5z+2WYNXUw3A43x2urjxSsB4v1t+9EMzplDReWRabIYDYb+WjTQfzmubdRXtVkNNpL5mqb2vHMyyuxZNletPtpqlaAb1WS8f79yQxByhMOIBB0YM32Uvz3M0tQVdvMMTgo4BDqmzvwh5c+QEl5M2Xr4FhDrGfzfzoab1EApwEpnNXjuObAoaM1ePpPK1DV3GVm3GlFISgn6naioa0Nv/jtMry4ZCOCHBSBnnVOo8tzQNJShyNIyAjjg/X78MNHX0RFXSPctN6gtN9y0zKJ5yUN+N3zK1FeTa13cSokNFm2Gf+pkeWgXHqO+0wOpzTcnuXmVj8e/+07NMEWypJmydZ8PifmzByBOA8ZZrnO7k5qyXI89sy71Hq/puvzQZRXVUMQv39tAx771avo9MsCOS6+z58xDMmJcSZMlI/6aHMhHnt6CY6W1PI6Byn1PlU4ITlZ95QFHrYULlHojE5WrStEYVEVzyrmpsmJ2SlD8b07rsCXF06Bz0vco1YEWX7Jsu147tU1aGzvoFEydjGTpgGaZs85GQjgW2FeiBZYXNqIZ2iZL7yxHq0dhDxqrdfnxZxZo/Fvt16Cy+aPg9vlgiPcxTourNtZhPc+2E3tF88KFE6dJAfXA6Se730iOUm5vuJjNXjsN0vQ1uan2IjcLjeG5qbg3m9eg9QkH8aPHYKMtCxs23mQEBNkTQf2HTiKstI6ZGZkIyU5ztZ2IdRpaMupk+CMvLOrLduP4aHHX8D23SXkjVpM6PDSIq+9/Hz8yy2LkBDjwfD8QThwuJR+qdkoh4PjKymtQv6gTORm9jMKfqp8OxA4DUgJM8pwhrFh5xFU1rZxDNRXYkmU18KFM0YjOy2GQwvD4wpi6rg8pCTFIdjlN4K1XNHYyUEeLq5AF5MjWUUEns49CbOZlrG7XXsOo6S2HZY7mlBIN0iN90RFY87UkYhyBcirE7EeBy6aM5YQ6SPfFqLdPjTROtduKkJA5hKSEp0aOYKe0xC404n2zjBWrt/FIdDkyJxCqomjBmDh3EnGZF0OOp4Qk6Bte1Fb30hTjRYWsXQ3Llo4GZMn5SGaEySv/bfRblmmm28X3NTmC+dOxNgRubCCnca5O8lvR3snPtqwnWy6NDfGH02fMAxjRvRXbXR0tsPp8mDthkIqWosCd7vhUyDLdRpOM0zPvmFjEQ4eraZgLeKhhRGDsnD79ZcgKz0WISdjdDK8r6gSz7y0Gv6gCwEJmw5j0dzx+Mcb5qB/aiJcYY+kYPD8b0GWk75HTosWOjgnGd+//RLMor9xUeAiBzX9laVb8cGmAwJIhDi2xLgoXHf5DPg8UXY5olJtYyveW7GNynLKoiMxius5+kyy1xKojcJuvtvagnh37VYgQDhgrOr2unDx7HEYNCCRxQg3NNtAsAuvvbUNlXVNcBnTC2MENeWGK2cgxuem41E8yyYY2Sz/sBA7Cks5cSwn86ZTjlCkz9Mj1QsauDhWWos339+LVr+fLMoewxiYm4pvf2MhZk0YrNGZie/g2F5ZvBm1ba2cGIqdcDcqvz+m0HqtkJI91vS4sHbLQdQ0tPB6sIdH8dq74siaexW4IOOEFVwcKanD7t2lBsetsBtD+mdhxvR8ltP88cWOt+6qxIdb9vIbBetyICk2CXfctBC5/dOoSYCHJixLeW/1bjzy89fxwM9exo69FdRCTa4s5JOCPh2hS9AK4Q5T2D98/A08+suX8fxr64w9KdbWkDJT++GfbiRfmam0TF5g/3v3FeOjtUzpyZ94iYv14aIFk5DVL8a0ZzGBK2WEs2XnYXPdRGxG2H2DmD5ouD0zUhgdL/1wOzq7eECOncSxiwkTGalxcNGLC5Mbm/146c116OiysVwRzVVfmoyxw7N4RLznoFgb76/ah1888z66yHRDQwf+42d/xkvvbUew2w47I9h+4nFfyUwY+1694QD+98MvYd/RMlgeD15ashW/+/Mq+hcJk+0yZB2QHYevX7sAUUQ4M0aGgm+8vZGJToNpR9Y5ZdxgfOnCsYiidbqdbnQHQ3hv5U7mGEqcTs0P9R2I2GZTYxPjbjLvUtzqQWycB5PH96fGeo23pxvGoeJa7Nx/1KTGjrAX/fsnYsH5Wk+hdhBuwhTwzgNleOH1NWjr7qJF0Cw5Ca1tHfjT8x9i+cZCdHd393R66hSxju27juCXzy1FcU0D3DQcN7XQH+rAm8s2Y//ROg7HYpBGK+XEnEcnPiIvh9kwFYTRVWllE7ZsKzaC1FJGHCOVmVOGICsrmdCiENiP4pJG1NTWG+XRpPSV+ihwzWA3ispacLS8wTieALsaOzQbOVlpPJK2BxAMuLBk+TajpWFpt9OPL18wDblZSWaAMklN2COPv4gjZYxeOBgt34ZCtAYaekNrC/7zyXfw/Jub4Q9oMozSUYsENZ9NMmnNtxXuVmt4/6N9uO9nL6CyvA1eXlfCwUibShFCQ1MXnvrDUrQyxGMubBxpfKwX/3DN+YiNFkyGGDo68daqXWjp6mB2yKiFwx+Wn4PpoweZuN3FwKCltQMbd5ZwIiUbvW3R90a9C5xtSaC0IuwivnV3dXPmnYQQC9Mnj2Q2plU0dehCSUU9DhaVGywUZfRLxnkzC3hd0EIt9nfhz6+sYljVKXSnC7KQEh+PC6aPMVGAxbArREE/+8qH+N0LK9Dc0U6BcDJ7Y5P9u2gpB4/V4tFn3sUvn3kbna103i7G+m4XHeMwpKcyBnbGIEzrLDxwDEtX7aUKKeaW43OggGHi8MED2RNDWEc3jpVVcCxVBiZNFxT85IkFnBTyyeHJze4/eAx+KldPCfO3N+pd4MIovgLkbQ+hwCknyldCnA/5A1N5RaolM3bhcEktqutbzYRImyaNYbaZ4uthxYEDxVXYtruM8O+xzxFiFswag2/fsQjXXjYVMYxTLSsKHcEAXnlrB/70ykZUsD1N+F9znBr80bJW+oQPGI3sQFMnrUMRFK9dMGMc/vWOS/DVy8/jpFBS9DvdzBGW0mFXMHHTwqzGkBjjxaTxeWrM8NXN8W7fUWrGahwwSw3ITkJyoteMlaqP4rIGWgyVQkz0kXoVeGSY7R1dOFZOzDIDt5CR0Q8Dc9JNgqDvnRzk5m370U3mLMbYPp8XUybm0wLkjQgLNNOVH+6glstCAjRFII0WcM2lU5GWGINvXDsft3z1Qmq5TJ0hWsiPP7+xHv/5xGs4WFxt2vgsamrqxk9+8TK2FR6hHLrYvyDGgUVzJuI7dyxghBFHPzIOI4cxiSEcOinQQyUVWLVqDzo6tOhGe+P586ZTg+mXLMKMIHH/wQpCT5sMyMB0YrwPI4blGRiSFCqqG1Hf1EIFklJGJPXXqU8arnizpqkNfgrdLe0lAwOYvMSSgTC/iJ8mfwj76TDdFKYwM4WMD81J4WDYBTG2pTOAwkMNJlnyh7qgFZipo7Mo9DheJ0R5gvBFJxntUtLhDPswMCsGC+eMQnZqNM8pyOSoLT/rGrbUrEJtxMa4sGgW03LF+O54g9sib1wMvBScHHUSj2dMzDWWp2EHqOXLPiROt7M1hrdh9pme4EVuaoLJE5x0Ckera1HfECBL3YQihrNuN/Jz+yEoqRHL/V1BVDARUlInS+kL9S5wtiORNnEmuxg9SMPl5JIS4wy+ikJMYKrpsdva2ykFlmadtNRkJCcnUiiasDBKyqvQ1Gwv5Hs9PkQxYRpVkM9BUKP4am0P4oNVjJMVENNko9xhfPWaC3DRvCmIiWVmyjac7CcMH7yyIsbDSryEyV7i9LwLp+DCmWNg0cd0CQIowHXrtqOuqZN96rsDo0cOR0y0UnzxbVGYjSg6UmbGqGVYr8eLnJwMFpWPcjLJa2f0xPrKntmEx+PmuONZnFPIc5JDYyPTfNbXGPpCvQtcRGYqKxtNZigMdLOzvFzCiXriwAIBiw6mFO3txE5ek/rlZPVDPFNj41D5b9/BcjS1tJEtZnqBIJONJEweO9QwqpeWeg8V19ACiPnU2huvvoCQUMB01M9zYWodh1lXCmx6DuEVjwNbnkWwbKdxvBpuXKwLt10/D9ddNg2eqCjDc129H28u3dwTjlrI698PI/Op5XyJxzY68Y1bdd+SbZDHaNYrGJZjxhcKBYjjIVTWNFOZOVIjqTCyM1IRE+U1S7yiysqGHkhhA32gXgVukhW+mhhOsV8yFybGOpCVkUSeZZ6Mb8nYoSOlTAg0EBZimj5AWaWJRRSfUMMZBpqBsb0wy2WnxyMtJdb0IU+/bfcx4rbkFEQWr82bzQiIUOCi1mlozpLNCC2+F+G37kPwg58isPgBYPG/w71vGa+rFxf6JXlw81fmYBihTJalUHHz3mJqKg2ex/ExTowaNsAogdaewkxiSqraEAhyhsmbiycz0mI5wUrQqEhUsLJKxuz8Lr8g7pMSopkkRRbtHKipayUc9RVQ+qjh5N2EdJpVk8DwXHJSLJm2qwcYM5aXN5lPkRjJziJ+86W63V1hlFc1GvzUfOgmc15OGjw0WzXW3tnNUK2ENYnfzAKnTi5ADi1AatWlCa8tROD5OxE4spbJEsM91gmE3AiV7oL/5R/AuW8F+6HQGKIqerpk/gQz8RJaJR1bSVmNZpKQ4MKQvPTjfLuYVTa1dKKhWZGGzWtyfDQzUKkZFYPKVV1LvvlpJoF1EhJiCIN2bB4mry2sr+k2QukD9UngUsyOLr+GbhqWR7ZX2exZFpa1EYOlNSKl+YnUBJFuyQWY5jcSTlw98CIMl2nKEOVTlUS0dWh9nANzeRkPZ/KYLyetiYP171mBUHMVHaeHTvlj8w0yAgq31aJzz1I6Njo31hF/A/qnIjraa7hro0CqGxqMVsNBvuKj4JPf0KBoiZ2dnWbC1aYcfFxMNKJjCIWaMPbVyWsfS5M472W6ZBTFhteAkjyTZfcMvhfqVeDqSnFogIG4jo3xUjNcJvpQRxw4TbKri5DD6+pWfXu8GpSKsAbfkeu20w0iNjbGFJbpd3T4e6yDIuNEaqHI1OUZV1czPBU7eElmLQuxl3XluAKMkJgqwVm6GQ5irlkmYKW42Fh4o8gfTV3fO9sZVJvWgBgKU8eaAMGC+Aow6LYdqe7J+uBmNKIFO133i2/7EvtkgkVl0nWdUhvdgW6jcD1FeqVeBR4hI0j7kMTmIyfsnk3n4sy+qcCGOSH6VCEV0aRpm4EqOGmy0nzTjOaNbMicDRazjRCvCXN1J0kxqKWYTHBmumAZYq+AzazH80gO1bBxAofSdglK5QUJpoQK8e2mhqo/811X+Glw2nzXqUg7avHjNg2pf76Pl2A9FT+p1GdSHwRua4NHq4H8poGEaYphxrHs2pSQcL0M89SzOpaJ+Ts7TGl9F5bGxcSa+4J0N4bhphaGkHKqHHk8NTIqinkhz4dYt6KyideoOartY5yeM9rsADDdGeG6GJ0QcgxOu+EbMJpdMydQ26ynhTA/EywtN8hikhLiejgNEyL8tEhOE0euyfJ5oxiiEppYwsEgIECNDTOK6hkZLZV8aeJJGq/4E3brmnh3ezRC5bR2jd6oDwJXfw7ERdOZ8NhoAQ/8THRksiIlBMJseXJRkCYmZ6KChh2Pk9jJ6/xmO07bmdmq4WD46OGEMN1XBsc2Dh+rM2U4T+SQQiuYB2QM4XViOhMrF/HaC939p4Cj4+EcdyXh2ce2WIfCKSqpIX9d1GIHkyIv+ikfYFsSanNLNx2uIIAWx/ZiotQ3Q1GjLMwHOjrRrckia0YZ6ITtKxqOgxDExI4Q2qNKhCCXWU86awJXw3IeMWRcWqGuZepGQzkgdeSjdmfSCSqsMpwagbYaoYl8XjrJzASdtq+zztHSakY9KstwLc6LUUNy2Y/CrRA+2ryPWt7OZIc6JUFkjob7mp8iJmcUOs1CmBOd1CpnXBLcV/0EyJ9nMkW17w+48f7KbSyjzsLIY78DcrTmw/if+nCY2bA2Kim7dRLz42OUzNBnqDzb1nq+4m+j1JyQ9FStdLK8PSy00HoC0ivNoFGWaBvqeKov1AcNV09hOjlbw9kHNdhCAzNPCVxa62aP/bPSCSu291dYVV3bzNI2G9rf0T8r2WRnZsM/Vbe+sc0MTuW9tJCRQ7PpjCQ0JyOaDmzRIpd6lNAFJwOmwbHwHmagimUsk6HGzbsb3jGXsj0CHaXR3N6NV97agLJqZrSqy65GDMlmdqnFMgcjrW4cPlppJlHjkiAz05PIt5Eu+3EwRGyjIqhbRUxa72F4anq0qaWtjRMiiZPYTkqiFMkkEPa5XqhXgWsi9ScpiQ2zTYlYEUVdfSO/qxN7T0duTn+T+moCJMTqmiYyTkakCHxnZqTAxyQmwnhNXQPj40qWFjkxbvRg9hHD71qiDeG1d1ahQhtDOdlOar20OpA8kOGotmEQxngmlDLUaJt0XgLatPMQnn99BUNUhnmcBK/HgxmTx3OizSAorHYUH63oEY49SYMGMREy34j+xO7qmnoToaiGoDKVArfHaZP8QyfhyibLLF/osl2jd3Iq+xOWKalRinoySZ/UYv+MOERFx2mtCFF0VEfKG0wdxatOYvSwgQlIp3MKaS2EmlFWXce0V2snQblGjCZk5KTGy5KJ42S8I4zVmw8SD6k97HdIXhouvnCyEZTC3EMVtXjkyXeweQcz0DYttXbTcdPK6EucLrboZpwfS4fKvrr8ASz/6BCe/ONyNHd3MXqRQwTmTBuBsSOyTPsykjVb9qO6yW/WzkVZaamYNm6guYsjGXTQ0e8orELYRT9huZBAv5OeTAxnksUglNjfjbKyVnOnSDCrZYy8zBRmrFSHHqXvjZzy/jJj04CEezIJzCjUzPRUxDK2lSZpxiur6pkwkHF7ehlpRGF4fjYb5Dl+r6vvwKGjtSyvth3UlBiMHJFtIhiigYnFN2w4hMqGVmMB4vjKBeOQPyDZ1PdYHuzeV4IHn3gNT77wAQpLGhCgxjkZtbgYIbnpF0ChH6tqwZ+WbMTjz7yFupoWXnMZDc1OTsL1l02BN1ozTJhigrN+3SGOUArkJDS5ceH5Y5FJjFeHbBE1jR04VlpOBKWAyUNeTj/0SyE/AmmWCAQcKDpWoTnmuDhmRlbpaXLI9vW+EKeWAlLrbCZkPMUnyZgK20qg08yR4zPnYFL1kvI6U0YFkpjyTp442Gy00TMynUwmNu0oZoxssyKe518wHrE+hmDsz0Nz14aaN97bjG4lNBaZT4rHvXdfhZzcNBO6aa2mhWn34re34D8e+DNK6pjoR9MXsE3dFO4IJeAnj76BPzwnGOkk3LiNf4lPjMK93/oyhg/qz761Q0Abl/ZhV2EpmSEUsf8B2Sm44qKpJjoiu4Y2bC9CO61Ft/tUrmBoulk7MRETJ62Z2fTeQ+XGgjRpWWlJSE2J4dgUEttt9EbO0FM3AEdWINzdBvenmoVGRwGxzUnjR5pjaXVLWxf2HjhihC8LAM10+NAspKWm00SpR44ubN5+kJiou9/siALtnxWPgQOyad7EaQoGriDeW7YLH6zda5ZfLc5K/oB0PPSdazB5fD5CkiyFIZjRUmlXiFmfN5YTRj0hQ52sU9/MmJ2ONMDJ8VEppo8fip9876uYPCaLsEJrJOztPliGZ59fZdbZjXDJ7qRJw5CW5DXWLfbbiM3rNu6jf2IZthsVzbYmjTQ4L5dpws0jpahr7jDjYykMHZRLgWu51syAJNErOa1tS4Cffx2ujc9/GqCYhg2PiiQG9YPbx+SFGqLFoq17KhDqDnEg2trA0JAOZmR+ButwgpiI1Dc1Yu2mw0ZTO7rDeHvFDhw9Rg2hKJQramAtfj9KShmqcWBaX1d/gwak4Z67LsGNl89CbkYazd+FbrbfTl8VZkQhRxqyotHOJMXP/qUAIwfn4ls3L8D3//UKjC7I4fC9RhMtRkVVlXVo6dBN6RB5l7MEVq3ZjcXLd6OxlfkCB757fzUOl5SbiEvKo1By8MAM4wuk4RZ9zfY9xeiWj4Di9hCGSR4MFFRI+2z6Qq4fLip4AF/7KTCO4ZXHDvJPJBM8SQokH5OEjYSJ+sZOwqITrS3NuGDmOCY11BRqgJydj45s9drdZp1DN5NrqloxfMwA/PZPy/D629vgDwXYqxZumcWxzi3XzcINX56LKMZgymLNpvWgw6z6TRqTh4vmjsPc88bBS0HkMfTMbi1EsGIvHMn56Mi/jLgaxh1fW4Cbrp6FUQwtY4jtLr7knKWborzcLFpXCjZtK4K21MjkOjq7sXHNERQVH8WwMfn49W8Xo6S6iXW06BXADVdfgHEF/Q2UyE0dOVqKF5ZsQQMtTS3H0nnfcfNFSIil6ugegBTGqOZfJ9cP3t33gFJnB8MtNX5yHfFn1j1IWngvrajDnkMVZEI3HnQzOQrjRg00JqdOlUQcPVaNkopGCpWZW2sYG7YWovBgJYdBS2BbMsnkuFj809fn4epF05laM9Eg5Ki+Ric21K+9ZOAxN26nThiEjIxkWIdXo7t0I1zpBUi64EZMm5SPrPQEE5oavWB9O85WWxqMllZlNen0DZk4pPuUHdqMSa11elBFP7J2414cK2/smR4XsTuTinCBSYp0t761M4CX3lqD9duPGWtQxDJlzDBcOn8cQ0cxS7Vknycr66eR00MnpHUI3fs3mHkyCVv1olZwrnHepALG03IrWulwYN2Ow6it05oxLYudxvocuGTBJEQz+3RRWyx0oba+gc6MtVUo6DHbJ75x3fm4Yt4EtqUImFGB4VuCN3rOCeR5SYD9yvGZpxM4HpcviecJa1FJ5m6P2UZh1JnHRstMMcmz50gxBbNKtjdn0hD8yz/OZ6iXakJBh4vQxBCzkjmBoNsjodGBX3j+ZGQkRVOwmrwwdu09TGFXcAx0qKznZSo/c3K+WYNRdCNFka70hehgCQXky8nZllGfTFojlqDNciy1c9iQdEwaNYCdKzYN4tChMqwiTsshKRWXx542IR9TGbEEybxujzksmSk/2cT884fh0ftvxhUXT6NWSlASBuMadu1wkHmeslfgKHie1Cf/ULRKb6hd0Qkm27SSUo3xu8i8nJ6poxFIaBoG67IpfvC7Gtcxo4KZU4fjh/92JfIGZBCPqelqg2Nn1IAAYW0EtftLcxkcKPIgb21dASx5fwuKS5uNfLoZvg7MymRCNbiHN7tvu9PeSTydEsVFR9GMh9G5sCqxSw8grdu4B01t2vUk1OSck9fLF84we8CDFLYcl7RjcGYSvnHjIgzKTaYwKT7yaJt/72QmQG9frK0EPmalpm7PpPRGshxNKPkdMTwP3/zaQgzKyjHWorUV7f3SHX7tlUyM09qKoMhCJWP7vYfLqDQBs+GT08N8Igvpis9Pg05Z4JLzhLF5SI6PIku2wIqY4CxbtRV+JgZiSIMazRBx9rRRvE4kZ0Hdw/zWP12F3FT6Cp0ghGly9K83MkWkRWw37I03ZxzRTLk5ZzaI9I20ZmUAjE1NHTUId99xBUYMYVxPruX4hjEqmTdrFEva+KAUZfnqHWhoDTBv4AmOVQu5588oYDuKX06dTlngmvlBOWm4YNZIprzUAnbd3NmF515ejZVr9pnrmoSYaAduv+li5A9MxsghaXjo+zdjwphcIzctCcgjSOuIOL0TBa2XOYxJMe0jtp85Z5/tA2luWc8ADdtz0XdMH5+Fh+65DrOnDmNIG41/vmURE50osaWBYmthCd5fud3GZ1kkFWU6sXvsiAE6oVZPmU5D4OSGScvF8ycgK1XaRmIM2tph4dUla1BR28pCLENTyEyNxbduvQL/evvlGJ7XjzXtxQNhto25evVRZKYYe4+hZjvpP7y6qWBLpm9ipz1J4EboYlGcuJHVL5Fh5ULcfeslKBjGHIK8Kf1v8wfx8ptrmUswu6WV6sZ+YrQPl140CT7mJFKs06FTFrjYlTMbkpfK+PlCnqC26vEROpMDxWX4zXNLGesqIKQ4qBrjR+SiYEjWccdlhCxnqGP96Tn/1+nj8pYvDg4v8VtYzklTRNMXMo4tQmzI1JTS8jg3KxmzpowgZgsQGbrScl9fspZx+wEjIT1eoh1ni+ZOYkAwBB5O+N9M4PbgmUmyw4tmj8LMicPIoMOEVUqG1mw6gmdf/ogpskFoW6gkhZVnRBIOP1zRtKoovj32rgCb+jJpf0n2fVe7rsJLjUt7Et/5aB+ef2Mrs187EfOyzII543DNJdMZOtoWZRzwadApC9zcDNYnE4IYJgY3XDmTGhKNYFc3nZEXoWAXGnTzgZlmSH6lB6T7FEn8VbKBw+GNRcATS4H3rK2f5jxG+JEimOMe9hSa1jCv6Ar5TdOyoGnjB9KaZzDxiuPY7bKnq0CnLPCIVmjtRB2PLhiAr9+4EJlpTEgIdF+5fDruum2ReQrZ6ZbOKPE4YWCnQfZSEYlthBkrhz3UcJeWIezzpzN08XMiT9JvfjGa/g+Xn0dMX8TM2of+6am489YrMTDXvtEQiblPdyxsnz2cAYWJJbopu7WwHPV19UxsxphdrJHBnC5jJ5IELkMxERC/B5+/C56LfwBHSq6ZdAnrNLDxUynCt7a/rd5wEClJiRhfkEUIYQ9noZMzFrjWReQwleJq34lW0aDNOrrGps09zDMkg5qEKMW+WlAIvfUgXLPvhCsx3Rb2WZjUCIlnW+gUi1m6tX2RFWS0bg/rjOiMpaFlDD1BbnYqUbjhk4R9hvPZQ9RsCsAMXAJOzITl9vLIxnV2or9nTLagFYVpIUIZBnvgAPXLIw7P6UUlJ9MZC1wPWLkNk9S9sJ5u+JjpyADOlD5uQe0y24tNhB7DtgV95u2fTDbfEnDQ3F1S3mHuzJ8FOnN7d1EIGrTCJDoyxbcROhvCFmmdQzd+zRa4cAD+fsOM4LU/xmnZT1z0RmY/N61QTyFrnrTJR0926Ius09xIZzNG2MZgqN0MDGTB2i8ecf6fILZpfs5DbWk3GlvXsZ660yuyMepEOmMM/1uQdEsPRIXNZFJgTRVwJhBWKAinBkYY603kRpAcv58C8coambzwLFszsSsnTsLVTNjlpEhSJZGt8X/Zg/aGFx4pRZzXi+jYWKSlxLNGEOVV7cjLS0FijJ6I6yncQ2eu4X8DEpNaexHvEoIrPp0C0WMBQnH7fG8koWmD0B9eWI0tu49S0Jw6gvOu/ZXYtLsUndq6Ry2tqe/Euh2lqKjSs/R23c+imNgo1De00Zl6caCoDIeOVKDoaDVWfrQdjc26M/SX9IUQeCTeNkRNC7t089c+J+fWFxNVCv/28o145sU1+PULH6Kjswutbd148lfv4P/87CXUt7SyHxc27SjC93/8B3y4odBMUoTsRwc/SbE+J9KTE9A/IxnJ8XGoa2xCbWMXsvPSEdDmm0/hrFeBh4hzwjvzw1t0HubRix7M0x4V8WEecSWW8gLL8zzLaYetXuLZPJqi+joWI/wMCyLYtgZi7oLznNmUJCzs6cPeuaU+NFg7JhHu6pvKql05M9Mn+w9b3Vr1ZR3CjDlnY6rdp4UZU0Zh7sx8zDtvlLld6PK6EHTqKTVtJFX7uhmuiIvtm7RefUhotCEHRyO+BGGmL5XRvVev2QiVkhyLpMQECj4GQ7MzkRzLrPRTTK8PP8FERtj4pj1FKDxcZraPbdx1GCvWbEd1TQv6p6WguS2A7buqsGrDXuw6eBRultFPLOlGnPCwi4nRzgPFWLlmF9ZvO4Ty6iazAJQQH2tHMwwF2tjGuo0HsPzDPSivbWb9GLNj1/zeoYNCaWtCaN8yBLe8BEfRGji72xGOz6DQ9LRCCBXE07VbDqOyuhMpqV74GDbq2aE1Ww/jSEUNBmSmEbc5WcTqEbkp7NfDxOYI4eWgeQoiNSUOXX4H1m3Zh8MlVYiPiUFaaiw1OBGar4amNmzfUYzla/ai8KDu6QIpCfFIT41BtNeHZAo8OzPe3KxOT41HTLTW2D/2AxHq1WlKk/3+MP79R3/Gzn3lyOkfh5Jjjegi/mmH8JfmjKIZkZmdh5md2Z48Oz0KD99/C4b0T0QXp/nlNzfgjy+vQ6N+H4uMmoeXkqPMsuiXLhjJesDTz63C84vXws/JiQq7MGPmCPzo7qvh0jbm9ioEXv4+PPsWo9PyIIoa1u2OQcz4yxG+4mE4vHFYtvYAfviz55GZnIJHf/Q1DMxOQnV1G+6+/zmzqehP/30r1u06hgcfW4ILZ+dhzoR83PeLtxHiNR/HGHBbmDyyABs374AvKhHdXX5cumAkfvDPX8HS9Qfw3FsrUFLUZDYKSZAJsV7cdPl0fOXKmYjzeYkVsjsJV0KWklKs0hXNzAnUO4Ybs9LmxRC6w35qZTweffAm3H3b+WYb2furd5ntvd+/58v4+SM3Y/KYXGpbN9at30/Td+LdD/bgjy+u4kQl4sHvXoGnHrgBd10/Gx7G0b/87Tvmt1Xa20L4aGMhMtKS8Iv7v4bbbr4QV8+fDE+UCx5/I8IrnoC1n9qdPx++m56C+7pfwTVgCvw73oS1/D8N7GiLdki7b7VvxYAPFYKCoULTCro40S6E3X6zQ1cp04Qx+fjJ967HwIwExEcn4D++eQ3u+tpM3HD1HNbtxlVfmoAbr5qLPYdK8evfLMaxAy2YPW0Innjwejz0b1dgSHYK/rh4Hd5ZsYvRjeBLeYfQUrCjjVD6/EvqXeBhRgUMu1RdD0VduXA8po0dhPnnTcGgTD1p7OK5sbho6jhMLMjFtOmMkd0O1DfWmyXatRv3m3j2+iun45Lzx2HyxEH4+nWzcOm8CWb31uYd++Fh+UyafGt7F3bsOILZU4ax3FBCkgMdR3fAKl4DKzEN7ll3MK5rpUOi4BZ+h2FCPHBoNdDRbBIwlTc/UsnBS+gBCsJppMDZYCjoC3nJi3yHC4lJsZgxKgexDN0sdxATR+eiYNAADB2URa3Uc6iZGJyTig3bDqOm2Y9JLPuN6+bjvIn5WDhnPG66dg7c7GfVBiocLVRPYwgeIzdX9Fsxn7bk0KvAIyYhvrXLKD0jhUMh8z5icEKMwfT0tFRjZpwd9EtMJD4zOqYAtHBfWVcDX7QDY4fnUQhsj3ChZGXCuMHweLQ7yw+fN4Rv3TwfY4Zl4vdvbcG//Psf8dqyTUx0uhGqLIK7uQnR2RNMKOh/9X/B8fp91OQEBFLyEWpvRLClyuxJ1x4S9SEN1QQYR0h810+LiKT35pOD0au752EqjTGoWzoKBuQYeU5PcUg8tdX18NC5jh43FNm0QAGH6o4amotojr+mppnYzzq9q66hPhUzBsqRaEO9WwMz6xrakMkBsgVb2CqoqNj+tI8c5hmaMKOAllb9lB7ZlamF+L1FT9srKqBDdMRiaG4Gbr/+YvPMfFvAj1eX6PZWkH3EmjVwq7kIwZhYRKfnmJDLWbQS7o56agEdCRVB/Gn/uZ8Y22V2kEqTFekQlrTJ6SRtk5D1eHfktFl27RmHNNVEK6wf7dPakB5AoGDNo++MijgZ2iOubSBawnXrIQE7Pe2V+iRw9keStlCQPNb2XCejjCCxW9cifYlJEyrqWNjJUCqvfxox2o/NTDY6A079NhmaA2GsXltIhxVAXk5/88MGJdU1SM2Io2+4ABMIWQ0UdklpNXxDxiGQmI7O+mqg8hBw49Nwz/wGAut/B2fTMbiSspgIZdOJMaIJd6OzO4TSqjaGsU5U1LcwgupAbHQU7GcryZj41UfPWCRUE+qagfFfz7FRGAo3NzfVPIu5c2cR9pdUU7AKF51YvW0P2prbzB5Er3yHBt0H6v0+ETvXfgzhmnat2lukaHpkxuWyn2lXUiFBG8k73GZNIsjY2udy4apLz8M+hpPPPL8MO3YfI3Z6sL+oFGXlfhQMy8X82SOZlQXxkyfeQkuHhUljc1Fa0mD2Xifr1zuzs+Geeg3Cbz4ELHkQyJ0EBJrQ0t6JeGnh9NvhjopGbo4HgwZmY19RDf7v797A+k1DUHiojFrZjmlTp5rHXnQ3R2GmFlxloWb9h0f2T23rWGPQTWRe5SC0SWou/c7K9YdQuPcoHv6vxcT6PBNGbt5ZjMx+Kbh80QxquKRNufSBei0lXoTZaUlRyMmIodnK3AQrIaQkuZHNONRLp6dfeRPzUTwekMkkID6Kk+BEwZB03HHjPAzNS8PuA4fx0br9aG8JYvK4TNz+DwsY58abrdDa/N7e2oqly7cZzfryonHIyUxlm4yzx14F75y7YCVnwF38ITV9DxLTMxEeQsfVdMTgbmqCAzddNRuTRudAzwmsYpTU2hrEghmjCVMTCIeEHJp+Vhp5i+MYjNJYyGKsnZPBfMBMgDZpepGbGUOLkbU6Oe443Pn1i3DZoknwMBRcubUQm/cfQ/+8TLM3cnyBfoOFzriPIN774hWv6v9DqKvvMriVmRZvtg8r86ylSXV36gcBohHlk5Y70dER4vlOMu4msz5WN7qEFqbShw9XmZg+Iz2Fg0okvmsBlOEbnai2wReX1qKhrg0ZjH4GMuyS4IWnwmzdNQ82lsKqPEgLCsNLTQ8T212rHoWVPhLh8YzZtV2U/qGqpBaldQ1IYvKUP1g/gqYFLgf7Bmqauhg3h6ksugntZJLVQWgLIic93jxEpd86r65voyLEmEcOjePtqV9b14RjJfUMGDwYMiidyQ2v00dIARUaKkLpjXoV+MmX9V1abx9Lp/mpPxSIWd/gFz0IG6lm6z2JabaYl2OSxZjdsiojR6VsiP+EnGpbUYb2I/KQaTudFMsoBNMadZBi1S/6aPlAW9ECgU44dr0FpObDNXAsU3UPXHQtCmEjnNvNEyjEL89rWUBO1AjK8MxCvGh/57E5ZX83RLjk8HhN95zsBWizSmmuaS1Hjl/8nQWBm95tkZlDycysjfCcurYDfbKgQdkcqAC/qGDkQ3quuyg2iWH7GU6V5Yc8jkI603YEDzlII4CeY9OHykmAHDbLm/ZYxtHZjOCB1XAOmgpiDQuwP0UarCNBm1/QROSHdsUxr6gzfTP9iXnzz7Tfc2TI5pN8sJipou8cH3tlO+JRQpYC8fPjap9JfRD455+Exc7uVvgbqxCVmArLF0+Bn4UbkOeA/kcIXGqp0NsVJLyEuhBiUqSc4fNI/zMETnvXIMzje/wnB/f5FPf/AIFH2FcsLY9inpQweN8HQP070BdW4BG2j0cSXxCyHfcXjE7UkS+avnwhBR7Ragk78v6i0BdS4CIJub293bzte55fDDrrGK7f/t65cyeam/V7KZxRJiCitLQ0DB8+3Dxjbyc0n+z2086JIudPvq72Fy1aZD7fffddDBhg/x7hZ1GkDU2OPk8uG2n7xH7+WnunTWz8rFJ9fb118cUXW4mJicff/fr1swYNGmRdddVVVlFRkRUKhSwO3Lx1HCF9P/EzQpGyJx6rn7Fjx5p2jxw58hd1TqZIvc8q11v9s0VnHVLIuFm+1CL9TTfdhPvuuw933nkn4uPj8cYbb+BXv/qV+em6CEU0Su/I8Ynn9D6x3IkU0cDIZ19JPJ5MakPnI32c3NfZorMu8Ihg4uLicP311+O73/0utBPjiSeeQGpqKpYvX47W1lZT9uRBaSIig45c0+8l+v3+41AQoVMVthRA7Yg+q06EdynMuaJz4jQjAtMA29ra0NjYiK1bt5qBTJkyBTExMabc22+/jWuuuQavvvoq7r33XjNBZWVlRjgbNmwwFiKcXrhwIQhHeOWVV45bR2RCRBKUJuSll14y7emttlWmtrYWDz30EC699FIQ6nDDDTcYHxOZWPmcH//4x7jlllvw3nvvmT7vueeenpbPAbHTs0rC1lmzZlk+n89gOQdgzZw500pKSrKuvfZa6/DhwwYvhd2PP/645XK5rMmTJ1uZmZnWJZdcYhUXF1tLly61Bg8ebNEirHnz5llXXHGF1b9/f4uO13rqqacsCsniJH4Cw9euXWvl5+drFixOnFVVVWVxsq0bb7zR+BH5j5tvvtm0O2nSJGv//v2GDyqFddlll1mEPKugoMDKy8uz7rrrrnOG6Wdd4NQoa/bs2Ra1zoqNjTUD0VsTkJuba1HzrGAwaAYkgTNqOS40hnjmmgSnOsuWLTNCk4A1UTqvdlS2oaHBGjdunDVkyBBryZIlVnp6upkQaqvV0tJi2qe/MBP605/+1LShSf7ggw+shIQE65vf/KY519HRYSZU/GpCpDA6d67onGE4IxM8+eSTBhpk3nKcFAQ4UFCLjUkrZBR8ULNNWBcdHQ0KEpWVlaAmgpaCqKgoE0pyUsCJNBBA7ezpDcYf/OhHPzL1br31VgNNgizxceDAAXi9XhOrCy44MeBkQb+de+zYMXNe5UT6pAUiOTnZ9Hmu6JxguEiDGjZsGGimRnCPPvoopk2bZgb65ptvHndMEnpOTs7xeL2kpMRMRlZWlhGW2tEE6k1YMWVKS0vNdxG1EQw1zfGoUfb/F6S3JqamRr/Q6TdOm1qMK6+8ErfddpvxKZpU+YOIgmiyqfnHJ+Bc0VkXuJgX03pLcJFzEnBkgBHt1nm9I8IWEUONoAkhaGpqMtdFilb27t1rvg8dOtSc03FGRgYefvhhEwHdf//9JhqS5mqilGzpl5AffPBBrFq1CqtXrzZvRUq//vWvkZKScrz9yESdyPO5oHOi4RKqBKxBvv7663j22Wfx7W9/G9u3bwexFgsWLDAaFaETBychzJ8/32j6I488gj179hgIevrpp0H8xejRozFmzBhTNiKgOXPmmPCzvLzcRBi///3vDQ/nn3++mbw1a9aY/gRT0uzXXnvNQN6JEy0e9Fa9yOc5ITZ+VklOU1EJGTYOS05Rn8RVa8SIEdaKFSv+Ikqhhn4i+1Q2qjYoLIvxvHlTUy1ClEXhmTJymiNHjjRRhSIbWo+JSDQkCtdavHixcYrf+973TH2dizjviRMnWrt27TL8UjEshozm+rp1645nvpHPs01nfS1FsLF+/XrU1dUZDVLz0jJprjCWIdpxWJHmKiaW1jIC6WnBJsGCLERxuXBYTnX69Olg+GjqC2IED/qcO3eucZTqk+GhwW9BjM6rf+UAshQ5bbUzY8YM045ITnvTpk2orq42FiE+RedKwz+XNyBOZEkTI6Hql+sjdDrCkGD11uT/PelzK3AJ9dNY07kTsbevdHJb50qDe6Nz4jTPlCLCPlEokePTFVRE4H8vQdsE/D+CgKGtuWeFxwAAAABJRU5ErkJggg==;" vertex="1" parent="ITYNh8joJ4E6JzPptwk2-1">
          <mxGeometry x="23.015486725663717" y="6" width="53.985" height="56.925000000000004" as="geometry" />
        </mxCell>
        <mxCell id="Eb7y4-ZgtyqC0BkITMDW-1" value="&lt;font color=&quot;#000000&quot;&gt;&lt;b&gt;Emulated Network&lt;/b&gt;&lt;/font&gt;" style="html=1;outlineConnect=0;fillColor=#CCCCCC;strokeColor=#6881B3;gradientColor=none;gradientDirection=north;strokeWidth=2;shape=mxgraph.networks.bus;gradientColor=none;gradientDirection=north;fontColor=#ffffff;perimeter=backbonePerimeter;backboneSize=20;" vertex="1" parent="1">
          <mxGeometry x="160" y="340" width="510" height="30" as="geometry" />
        </mxCell>
        <mxCell id="PYyJNzy12OPl2D-mPlF9-1" value="Temperature&lt;div&gt;Sensor 2&lt;/div&gt;" style="outlineConnect=0;dashed=0;verticalLabelPosition=bottom;verticalAlign=top;align=center;html=1;shape=mxgraph.aws3.thermostat;fillColor=#5294CF;gradientColor=none;" vertex="1" parent="1">
          <mxGeometry x="310" y="410" width="49.5" height="49.5" as="geometry" />
        </mxCell>
        <mxCell id="d4k-WZPCGK8tpKROQi8G-1" value="Attacker" style="verticalLabelPosition=bottom;sketch=0;html=1;fillColor=#F06650;strokeColor=#ffffff;verticalAlign=top;align=center;points=[];pointerEvents=1;shape=mxgraph.cisco_safe.compositeIcon;bgIcon=threat3;resIcon=mxgraph.cisco_safe.threat.threat_c3;" vertex="1" parent="1">
          <mxGeometry x="443" y="414.5" width="50" height="40.5" as="geometry" />
        </mxCell>
        <mxCell id="d4k-WZPCGK8tpKROQi8G-2" value="Attacker" style="verticalLabelPosition=bottom;sketch=0;html=1;fillColor=#F06650;strokeColor=#ffffff;verticalAlign=top;align=center;points=[];pointerEvents=1;shape=mxgraph.cisco_safe.compositeIcon;bgIcon=threat3;resIcon=mxgraph.cisco_safe.threat.threat_c3;" vertex="1" parent="1">
          <mxGeometry x="580" y="414.5" width="50" height="40.5" as="geometry" />
        </mxCell>
        <mxCell id="s6a0biRmEJ-l0Z8Liema-1" value="" style="image;aspect=fixed;html=1;points=[];align=center;fontSize=12;image=img/lib/azure2/other/Azure_Monitor_Dashboard.svg;" vertex="1" parent="1">
          <mxGeometry x="512" y="213.40000000000003" width="68" height="63.2" as="geometry" />
        </mxCell>
        <mxCell id="aiB9hrRQSwI9ZsmuD3J2-1" style="edgeStyle=orthogonalEdgeStyle;rounded=0;orthogonalLoop=1;jettySize=auto;html=1;strokeWidth=3;endArrow=oval;endFill=1;startArrow=oval;startFill=1;" edge="1" parent="1">
          <mxGeometry relative="1" as="geometry">
            <mxPoint x="380" y="290" as="sourcePoint" />
            <mxPoint x="380" y="342" as="targetPoint" />
          </mxGeometry>
        </mxCell>
        <mxCell id="aiB9hrRQSwI9ZsmuD3J2-2" style="edgeStyle=orthogonalEdgeStyle;rounded=0;orthogonalLoop=1;jettySize=auto;html=1;strokeWidth=3;endArrow=oval;endFill=1;startArrow=oval;startFill=1;" edge="1" parent="1" source="s6a0biRmEJ-l0Z8Liema-1">
          <mxGeometry relative="1" as="geometry">
            <mxPoint x="545.5" y="288" as="sourcePoint" />
            <mxPoint x="545.5" y="340" as="targetPoint" />
          </mxGeometry>
        </mxCell>
        <mxCell id="aiB9hrRQSwI9ZsmuD3J2-4" style="edgeStyle=orthogonalEdgeStyle;rounded=0;orthogonalLoop=1;jettySize=auto;html=1;strokeWidth=3;endArrow=oval;endFill=1;startArrow=oval;startFill=1;entryX=0.5;entryY=0;entryDx=0;entryDy=0;entryPerimeter=0;" edge="1" parent="1">
          <mxGeometry relative="1" as="geometry">
            <mxPoint x="334.13" y="362.5" as="sourcePoint" />
            <mxPoint x="334.88" y="410" as="targetPoint" />
          </mxGeometry>
        </mxCell>
        <mxCell id="aiB9hrRQSwI9ZsmuD3J2-5" style="edgeStyle=orthogonalEdgeStyle;rounded=0;orthogonalLoop=1;jettySize=auto;html=1;strokeWidth=3;endArrow=oval;endFill=1;startArrow=oval;startFill=1;entryX=0.5;entryY=0;entryDx=0;entryDy=0;entryPerimeter=0;" edge="1" parent="1">
          <mxGeometry relative="1" as="geometry">
            <mxPoint x="467.5" y="363" as="sourcePoint" />
            <mxPoint x="468.25" y="410.5" as="targetPoint" />
            <Array as="points">
              <mxPoint x="467.12" y="387" />
            </Array>
          </mxGeometry>
        </mxCell>
        <mxCell id="aiB9hrRQSwI9ZsmuD3J2-6" style="edgeStyle=orthogonalEdgeStyle;rounded=0;orthogonalLoop=1;jettySize=auto;html=1;strokeWidth=3;endArrow=oval;endFill=1;startArrow=oval;startFill=1;entryX=0.5;entryY=0;entryDx=0;entryDy=0;entryPerimeter=0;" edge="1" parent="1">
          <mxGeometry relative="1" as="geometry">
            <mxPoint x="604.39" y="363" as="sourcePoint" />
            <mxPoint x="605.14" y="410.5" as="targetPoint" />
          </mxGeometry>
        </mxCell>
        <mxCell id="aiB9hrRQSwI9ZsmuD3J2-7" value="" style="image;sketch=0;aspect=fixed;html=1;points=[];align=center;fontSize=12;image=img/lib/mscae/Docker.svg;" vertex="1" parent="1">
          <mxGeometry x="152.2" y="429" width="37.8" height="31" as="geometry" />
        </mxCell>
        <mxCell id="aiB9hrRQSwI9ZsmuD3J2-8" value="" style="image;sketch=0;aspect=fixed;html=1;points=[];align=center;fontSize=12;image=img/lib/mscae/Docker.svg;" vertex="1" parent="1">
          <mxGeometry x="315.85" y="276.6" width="37.8" height="31" as="geometry" />
        </mxCell>
        <mxCell id="aiB9hrRQSwI9ZsmuD3J2-9" value="" style="image;sketch=0;aspect=fixed;html=1;points=[];align=center;fontSize=12;image=img/lib/mscae/Docker.svg;" vertex="1" parent="1">
          <mxGeometry x="500" y="276.6" width="37.8" height="31" as="geometry" />
        </mxCell>
        <mxCell id="aiB9hrRQSwI9ZsmuD3J2-10" value="" style="image;sketch=0;aspect=fixed;html=1;points=[];align=center;fontSize=12;image=img/lib/mscae/Docker.svg;" vertex="1" parent="1">
          <mxGeometry x="542.2" y="429" width="37.8" height="31" as="geometry" />
        </mxCell>
        <mxCell id="aiB9hrRQSwI9ZsmuD3J2-11" value="" style="image;sketch=0;aspect=fixed;html=1;points=[];align=center;fontSize=12;image=img/lib/mscae/Docker.svg;" vertex="1" parent="1">
          <mxGeometry x="406" y="427.25" width="37.8" height="31" as="geometry" />
        </mxCell>
        <mxCell id="aiB9hrRQSwI9ZsmuD3J2-12" value="" style="image;sketch=0;aspect=fixed;html=1;points=[];align=center;fontSize=12;image=img/lib/mscae/Docker.svg;" vertex="1" parent="1">
          <mxGeometry x="272.2" y="428.5" width="37.8" height="31" as="geometry" />
        </mxCell>
        <mxCell id="aiB9hrRQSwI9ZsmuD3J2-13" value="Temperature&lt;div&gt;Sensor 2&lt;/div&gt;" style="outlineConnect=0;dashed=0;verticalLabelPosition=bottom;verticalAlign=top;align=center;html=1;shape=mxgraph.aws3.thermostat;fillColor=#5294CF;gradientColor=none;" vertex="1" parent="1">
          <mxGeometry x="190" y="410.5" width="49.5" height="49.5" as="geometry" />
        </mxCell>
        <mxCell id="aiB9hrRQSwI9ZsmuD3J2-14" style="edgeStyle=orthogonalEdgeStyle;rounded=0;orthogonalLoop=1;jettySize=auto;html=1;strokeWidth=3;endArrow=oval;endFill=1;startArrow=oval;startFill=1;entryX=0.5;entryY=0;entryDx=0;entryDy=0;entryPerimeter=0;" edge="1" parent="1">
          <mxGeometry relative="1" as="geometry">
            <mxPoint x="214.10999999999999" y="363" as="sourcePoint" />
            <mxPoint x="214.85999999999999" y="410.5" as="targetPoint" />
          </mxGeometry>
        </mxCell>
      </root>
    </mxGraphModel>
  </diagram>
</mxfile>
